<svg id="visual" viewBox="0 0 900 600" width="900" height="600" xmlns="http://www.w3.org/2000/svg" xmlns:xlink="http://www.w3.org/1999/xlink" version="1.1"><rect x="0" y="0" width="900" height="600" fill="#001220"></rect><defs><linearGradient id="grad1_0" x1="33.3%" y1="0%" x2="100%" y2="100%"><stop offset="20%" stop-color="#5ea8d8" stop-opacity="1"></stop><stop offset="80%" stop-color="#5ea8d8" stop-opacity="1"></stop></linearGradient></defs><defs><linearGradient id="grad1_1" x1="33.3%" y1="0%" x2="100%" y2="100%"><stop offset="20%" stop-color="#5ea8d8" stop-opacity="1"></stop><stop offset="80%" stop-color="#001220" stop-opacity="1"></stop></linearGradient></defs><defs><linearGradient id="grad2_0" x1="0%" y1="0%" x2="66.7%" y2="100%"><stop offset="20%" stop-color="#5ea8d8" stop-opacity="1"></stop><stop offset="80%" stop-color="#5ea8d8" stop-opacity="1"></stop></linearGradient></defs><defs><linearGradient id="grad2_1" x1="0%" y1="0%" x2="66.7%" y2="100%"><stop offset="20%" stop-color="#001220" stop-opacity="1"></stop><stop offset="80%" stop-color="#5ea8d8" stop-opacity="1"></stop></linearGradient></defs><g transform="translate(900, 0)"><path d="M0 486.7C-40 469.3 -80 451.9 -117.2 437.6C-154.5 423.3 -189.2 412.1 -231 400.1C-272.8 388.1 -321.9 375.2 -340.8 340.8C-359.7 306.4 -348.4 250.5 -369.8 213.5C-391.2 176.5 -445.2 158.4 -470.2 126C-495.1 93.5 -490.9 46.8 -486.7 0L0 0Z" fill="#2e5776"></path><path d="M0 243.4C-20 234.7 -40 225.9 -58.6 218.8C-77.3 211.6 -94.6 206.1 -115.5 200.1C-136.4 194 -161 187.6 -170.4 170.4C-179.9 153.2 -174.2 125.3 -184.9 106.8C-195.6 88.2 -222.6 79.2 -235.1 63C-247.6 46.8 -245.5 23.4 -243.4 0L0 0Z" fill="#5ea8d8"></path></g><g transform="translate(0, 600)"><path d="M0 -486.7C40.8 -472.6 81.5 -458.5 117 -436.6C152.4 -414.7 182.5 -385.2 207.5 -359.4C232.5 -333.6 252.3 -311.6 297.7 -297.7C343.1 -283.8 414.2 -278 421.5 -243.4C428.9 -208.7 372.6 -145.3 372.8 -99.9C373.1 -54.5 429.9 -27.3 486.7 0L0 0Z" fill="#2e5776"></path><path d="M0 -243.4C20.4 -236.3 40.8 -229.2 58.5 -218.3C76.2 -207.4 91.3 -192.6 103.7 -179.7C116.2 -166.8 126.1 -155.8 148.8 -148.8C171.6 -141.9 207.1 -139 210.8 -121.7C214.5 -104.4 186.3 -72.6 186.4 -50C186.6 -27.3 215 -13.6 243.4 0L0 0Z" fill="#5ea8d8"></path></g></svg>