<svg id="visual" viewBox="0 0 900 600" width="900" height="600" xmlns="http://www.w3.org/2000/svg" xmlns:xlink="http://www.w3.org/1999/xlink" version="1.1"><rect x="0" y="0" width="900" height="600" fill="none"></rect><defs><linearGradient id="grad1_0" x1="33.3%" y1="0%" x2="100%" y2="100%"><stop offset="20%" stop-color="#5ea8d8" stop-opacity="1"></stop><stop offset="80%" stop-color="#5ea8d8" stop-opacity="1"></stop></linearGradient></defs><defs><linearGradient id="grad1_1" x1="33.3%" y1="0%" x2="100%" y2="100%"><stop offset="20%" stop-color="#5ea8d8" stop-opacity="1"></stop><stop offset="80%" stop-color="#0a1318" stop-opacity="1"></stop></linearGradient></defs><defs><linearGradient id="grad2_0" x1="0%" y1="0%" x2="66.7%" y2="100%"><stop offset="20%" stop-color="#5ea8d8" stop-opacity="1"></stop><stop offset="80%" stop-color="#5ea8d8" stop-opacity="1"></stop></linearGradient></defs><defs><linearGradient id="grad2_1" x1="0%" y1="0%" x2="66.7%" y2="100%"><stop offset="20%" stop-color="#0a1318" stop-opacity="1"></stop><stop offset="80%" stop-color="#5ea8d8" stop-opacity="1"></stop></linearGradient></defs><g transform="translate(900, 0)"><path d="M0 459.7C-51 434.3 -102.1 409 -162.3 391.7C-222.4 374.5 -291.7 365.3 -325.1 325.1C-358.4 284.8 -355.9 213.6 -372.3 154.2C-388.8 94.9 -424.2 47.4 -459.7 0L0 0Z" fill="#325870"></path><path d="M0 229.9C-25.5 217.2 -51 204.5 -81.1 195.9C-111.2 187.2 -145.9 182.6 -162.5 162.5C-179.2 142.4 -177.9 106.8 -186.2 77.1C-194.4 47.4 -212.1 23.7 -229.9 0L0 0Z" fill="#5ea8d8"></path></g><g transform="translate(0, 600)"><path d="M0 -459.7C48.1 -426.2 96.2 -392.6 155.8 -376C215.3 -359.4 286.1 -359.7 325.1 -325.1C364 -290.4 370.9 -220.7 388 -160.7C405.1 -100.7 432.4 -50.4 459.7 0L0 0Z" fill="#325870"></path><path d="M0 -229.9C24.1 -213.1 48.1 -196.3 77.9 -188C107.6 -179.7 143.1 -179.9 162.5 -162.5C182 -145.2 185.5 -110.4 194 -80.4C202.6 -50.4 216.2 -25.2 229.9 0L0 0Z" fill="#5ea8d8"></path></g></svg>