<svg id="visual" viewBox="0 0 960 540" width="960" height="540" xmlns="http://www.w3.org/2000/svg" xmlns:xlink="http://www.w3.org/1999/xlink" version="1.1"><rect x="0" y="0" width="960" height="540" fill="#931C1C"></rect><path d="M230 540L407 463L182 386L293 309L235 231L156 154L276 77L219 0L960 0L960 77L960 154L960 231L960 309L960 386L960 463L960 540Z" fill="#f5730a"></path><path d="M276 540L469 463L367 386L242 309L360 231L474 154L363 77L247 0L960 0L960 77L960 154L960 231L960 309L960 386L960 463L960 540Z" fill="#e7670a"></path><path d="M381 540L438 463L342 386L435 309L465 231L340 154L344 77L522 0L960 0L960 77L960 154L960 231L960 309L960 386L960 463L960 540Z" fill="#da5b09"></path><path d="M554 540L516 463L582 386L473 309L554 231L591 154L556 77L564 0L960 0L960 77L960 154L960 231L960 309L960 386L960 463L960 540Z" fill="#cc4f08"></path><path d="M545 540L578 463L519 386L672 309L602 231L546 154L533 77L551 0L960 0L960 77L960 154L960 231L960 309L960 386L960 463L960 540Z" fill="#be4407"></path><path d="M715 540L728 463L639 386L659 309L654 231L657 154L637 77L597 0L960 0L960 77L960 154L960 231L960 309L960 386L960 463L960 540Z" fill="#b03806"></path><path d="M706 540L737 463L744 386L710 309L697 231L726 154L734 77L658 0L960 0L960 77L960 154L960 231L960 309L960 386L960 463L960 540Z" fill="#a32d04"></path><path d="M790 540L829 463L851 386L770 309L829 231L835 154L735 77L812 0L960 0L960 77L960 154L960 231L960 309L960 386L960 463L960 540Z" fill="#952103"></path><path d="M883 540L853 463L889 386L866 309L820 231L886 154L829 77L840 0L960 0L960 77L960 154L960 231L960 309L960 386L960 463L960 540Z" fill="#871400"></path></svg>