<svg id="visual" viewBox="0 0 900 600" width="900" height="600" xmlns="http://www.w3.org/2000/svg" xmlns:xlink="http://www.w3.org/1999/xlink" version="1.1"><rect x="0" y="0" width="900" height="600" fill="#0a1318"></rect><path d="M0 166L8.8 169.5C17.7 173 35.3 180 53 178.5C70.7 177 88.3 167 106 165.3C123.7 163.7 141.3 170.3 159 173.8C176.7 177.3 194.3 177.7 212 174.7C229.7 171.7 247.3 165.3 265 163.2C282.7 161 300.3 163 318 159.2C335.7 155.3 353.3 145.7 371 145.5C388.7 145.3 406.3 154.7 423.8 162C441.3 169.3 458.7 174.7 476.2 171.3C493.7 168 511.3 156 529 156.7C546.7 157.3 564.3 170.7 582 177.3C599.7 184 617.3 184 635 176.5C652.7 169 670.3 154 688 152.5C705.7 151 723.3 163 741 169.2C758.7 175.3 776.3 175.7 794 169.7C811.7 163.7 829.3 151.3 847 151.2C864.7 151 882.3 163 891.2 169L900 175L900 0L891.2 0C882.3 0 864.7 0 847 0C829.3 0 811.7 0 794 0C776.3 0 758.7 0 741 0C723.3 0 705.7 0 688 0C670.3 0 652.7 0 635 0C617.3 0 599.7 0 582 0C564.3 0 546.7 0 529 0C511.3 0 493.7 0 476.2 0C458.7 0 441.3 0 423.8 0C406.3 0 388.7 0 371 0C353.3 0 335.7 0 318 0C300.3 0 282.7 0 265 0C247.3 0 229.7 0 212 0C194.3 0 176.7 0 159 0C141.3 0 123.7 0 106 0C88.3 0 70.7 0 53 0C35.3 0 17.7 0 8.8 0L0 0Z" fill="#e9a483"></path><path d="M0 118L8.8 120.2C17.7 122.3 35.3 126.7 53 129.2C70.7 131.7 88.3 132.3 106 133C123.7 133.7 141.3 134.3 159 133.8C176.7 133.3 194.3 131.7 212 133.7C229.7 135.7 247.3 141.3 265 143C282.7 144.7 300.3 142.3 318 140.7C335.7 139 353.3 138 371 138.7C388.7 139.3 406.3 141.7 423.8 138.8C441.3 136 458.7 128 476.2 126C493.7 124 511.3 128 529 130.7C546.7 133.3 564.3 134.7 582 136.2C599.7 137.7 617.3 139.3 635 143C652.7 146.7 670.3 152.3 688 154.5C705.7 156.7 723.3 155.3 741 152.5C758.7 149.7 776.3 145.3 794 139.5C811.7 133.7 829.3 126.3 847 129.3C864.7 132.3 882.3 145.7 891.2 152.3L900 159L900 0L891.2 0C882.3 0 864.7 0 847 0C829.3 0 811.7 0 794 0C776.3 0 758.7 0 741 0C723.3 0 705.7 0 688 0C670.3 0 652.7 0 635 0C617.3 0 599.7 0 582 0C564.3 0 546.7 0 529 0C511.3 0 493.7 0 476.2 0C458.7 0 441.3 0 423.8 0C406.3 0 388.7 0 371 0C353.3 0 335.7 0 318 0C300.3 0 282.7 0 265 0C247.3 0 229.7 0 212 0C194.3 0 176.7 0 159 0C141.3 0 123.7 0 106 0C88.3 0 70.7 0 53 0C35.3 0 17.7 0 8.8 0L0 0Z" fill="#e9926f"></path><path d="M0 100L8.8 99.8C17.7 99.7 35.3 99.3 53 102.5C70.7 105.7 88.3 112.3 106 117.5C123.7 122.7 141.3 126.3 159 123.7C176.7 121 194.3 112 212 111.5C229.7 111 247.3 119 265 119C282.7 119 300.3 111 318 111.3C335.7 111.7 353.3 120.3 371 121.2C388.7 122 406.3 115 423.8 112.7C441.3 110.3 458.7 112.7 476.2 114C493.7 115.3 511.3 115.7 529 112.8C546.7 110 564.3 104 582 101.8C599.7 99.7 617.3 101.3 635 103C652.7 104.7 670.3 106.3 688 105.8C705.7 105.3 723.3 102.7 741 103.7C758.7 104.7 776.3 109.3 794 109C811.7 108.7 829.3 103.3 847 102.2C864.7 101 882.3 104 891.2 105.5L900 107L900 0L891.2 0C882.3 0 864.7 0 847 0C829.3 0 811.7 0 794 0C776.3 0 758.7 0 741 0C723.3 0 705.7 0 688 0C670.3 0 652.7 0 635 0C617.3 0 599.7 0 582 0C564.3 0 546.7 0 529 0C511.3 0 493.7 0 476.2 0C458.7 0 441.3 0 423.8 0C406.3 0 388.7 0 371 0C353.3 0 335.7 0 318 0C300.3 0 282.7 0 265 0C247.3 0 229.7 0 212 0C194.3 0 176.7 0 159 0C141.3 0 123.7 0 106 0C88.3 0 70.7 0 53 0C35.3 0 17.7 0 8.8 0L0 0Z" fill="#e8805d"></path><path d="M0 79L8.8 82.2C17.7 85.3 35.3 91.7 53 94.2C70.7 96.7 88.3 95.3 106 94.3C123.7 93.3 141.3 92.7 159 92.5C176.7 92.3 194.3 92.7 212 90.2C229.7 87.7 247.3 82.3 265 83.5C282.7 84.7 300.3 92.3 318 91.7C335.7 91 353.3 82 371 82.3C388.7 82.7 406.3 92.3 423.8 96.2C441.3 100 458.7 98 476.2 93.5C493.7 89 511.3 82 529 80.3C546.7 78.7 564.3 82.3 582 86.5C599.7 90.7 617.3 95.3 635 95.7C652.7 96 670.3 92 688 88.8C705.7 85.7 723.3 83.3 741 82.8C758.7 82.3 776.3 83.7 794 84.8C811.7 86 829.3 87 847 86.2C864.7 85.3 882.3 82.7 891.2 81.3L900 80L900 0L891.2 0C882.3 0 864.7 0 847 0C829.3 0 811.7 0 794 0C776.3 0 758.7 0 741 0C723.3 0 705.7 0 688 0C670.3 0 652.7 0 635 0C617.3 0 599.7 0 582 0C564.3 0 546.7 0 529 0C511.3 0 493.7 0 476.2 0C458.7 0 441.3 0 423.8 0C406.3 0 388.7 0 371 0C353.3 0 335.7 0 318 0C300.3 0 282.7 0 265 0C247.3 0 229.7 0 212 0C194.3 0 176.7 0 159 0C141.3 0 123.7 0 106 0C88.3 0 70.7 0 53 0C35.3 0 17.7 0 8.8 0L0 0Z" fill="#e86c4d"></path><path d="M0 62L8.8 62.8C17.7 63.7 35.3 65.3 53 64.2C70.7 63 88.3 59 106 59.3C123.7 59.7 141.3 64.3 159 64.2C176.7 64 194.3 59 212 59.8C229.7 60.7 247.3 67.3 265 71.2C282.7 75 300.3 76 318 75.7C335.7 75.3 353.3 73.7 371 73.5C388.7 73.3 406.3 74.7 423.8 75.5C441.3 76.3 458.7 76.7 476.2 76.2C493.7 75.7 511.3 74.3 529 71C546.7 67.7 564.3 62.3 582 61.3C599.7 60.3 617.3 63.7 635 65.2C652.7 66.7 670.3 66.3 688 68C705.7 69.7 723.3 73.3 741 74.5C758.7 75.7 776.3 74.3 794 71.8C811.7 69.3 829.3 65.7 847 65.8C864.7 66 882.3 70 891.2 72L900 74L900 0L891.2 0C882.3 0 864.7 0 847 0C829.3 0 811.7 0 794 0C776.3 0 758.7 0 741 0C723.3 0 705.7 0 688 0C670.3 0 652.7 0 635 0C617.3 0 599.7 0 582 0C564.3 0 546.7 0 529 0C511.3 0 493.7 0 476.2 0C458.7 0 441.3 0 423.8 0C406.3 0 388.7 0 371 0C353.3 0 335.7 0 318 0C300.3 0 282.7 0 265 0C247.3 0 229.7 0 212 0C194.3 0 176.7 0 159 0C141.3 0 123.7 0 106 0C88.3 0 70.7 0 53 0C35.3 0 17.7 0 8.8 0L0 0Z" fill="#e75540"></path><path d="M0 39L8.8 40.3C17.7 41.7 35.3 44.3 53 45.8C70.7 47.3 88.3 47.7 106 46.8C123.7 46 141.3 44 159 43.5C176.7 43 194.3 44 212 44.7C229.7 45.3 247.3 45.7 265 45.3C282.7 45 300.3 44 318 43C335.7 42 353.3 41 371 39.8C388.7 38.7 406.3 37.3 423.8 38.5C441.3 39.7 458.7 43.3 476.2 44C493.7 44.7 511.3 42.3 529 42.3C546.7 42.3 564.3 44.7 582 46.3C599.7 48 617.3 49 635 47.7C652.7 46.3 670.3 42.7 688 42.2C705.7 41.7 723.3 44.3 741 45.3C758.7 46.3 776.3 45.7 794 44.7C811.7 43.7 829.3 42.3 847 42C864.7 41.7 882.3 42.3 891.2 42.7L900 43L900 0L891.2 0C882.3 0 864.7 0 847 0C829.3 0 811.7 0 794 0C776.3 0 758.7 0 741 0C723.3 0 705.7 0 688 0C670.3 0 652.7 0 635 0C617.3 0 599.7 0 582 0C564.3 0 546.7 0 529 0C511.3 0 493.7 0 476.2 0C458.7 0 441.3 0 423.8 0C406.3 0 388.7 0 371 0C353.3 0 335.7 0 318 0C300.3 0 282.7 0 265 0C247.3 0 229.7 0 212 0C194.3 0 176.7 0 159 0C141.3 0 123.7 0 106 0C88.3 0 70.7 0 53 0C35.3 0 17.7 0 8.8 0L0 0Z" fill="#e53935"></path></svg>