<svg id="visual" viewBox="0 0 900 450" width="900" height="450" xmlns="http://www.w3.org/2000/svg" xmlns:xlink="http://www.w3.org/1999/xlink" version="1.1"><rect x="0" y="0" width="900" height="450" fill="none"></rect><path d="M657 450L679 386L641 321L699 257L613 193L605 129L631 64L617 0L900 0L900 64L900 129L900 193L900 257L900 321L900 386L900 450Z" fill="#871400"></path><path d="M737 450L680 386L690 321L757 257L733 193L701 129L711 64L733 0L900 0L900 64L900 129L900 193L900 257L900 321L900 386L900 450Z" fill="#a32d04"></path><path d="M780 450L756 386L747 321L776 257L787 193L768 129L737 64L732 0L900 0L900 64L900 129L900 193L900 257L900 321L900 386L900 450Z" fill="#be4407"></path><path d="M798 450L770 386L804 321L817 257L762 193L792 129L823 64L769 0L900 0L900 64L900 129L900 193L900 257L900 321L900 386L900 450Z" fill="#da5b09"></path><path d="M831 450L835 386L846 321L815 257L862 193L834 129L827 64L848 0L900 0L900 64L900 129L900 193L900 257L900 321L900 386L900 450Z" fill="#f5730a"></path></svg>