<?xml version="1.0" encoding="UTF-8"?>
<svg width="163px" height="70px" viewBox="0 0 163 70" version="1.1" xmlns="http://www.w3.org/2000/svg" xmlns:xlink="http://www.w3.org/1999/xlink">
    <title>Custom Preset</title>
    <defs>
        <polygon id="path-1" points="0 66.4 161.3 66.4 161.3 0 0 0"></polygon>
    </defs>
    <g id="Custom-Preset" stroke="none" stroke-width="1" fill="none" fill-rule="evenodd">
        <g id="Group-215" transform="translate(1.000000, 2.000000)">
            <path d="M83.7,23.1 C83.3,21.9 82.3,20.8 80.8,20.8 C79.1,20.8 77.8,21.8 77.8,23.3 C77.8,27.3 86.7,26.7 86.7,32.9 C86.7,36.1 84.3,38.6 80.5,38.6 C77.9,38.6 75.4,37.4 74.5,37.1 L74.5,31.3 L75.4,31.3 L76.3,34.1 C76.8,35.8 77.8,37.5 79.9,37.5 C82,37.5 83.6,36.1 83.6,34.3 C83.6,30.3 74.7,31 74.7,24.8 C74.7,21.6 77,19.6 80.6,19.6 C82.3,19.6 84.1,20.1 85.7,20.7 L85.7,25.6 L84.8,25.6 L83.7,23.1 Z" id="Fill-1" fill="#ffffff"></path>
            <path d="M92.2,30.3 L96.7,30.3 L94.5,23.8 L92.2,30.3 Z M85.9,37.7 L88.4,37.1 L95.2,19.8 L97.2,19.8 L103.1,37.1 L105.5,37.7 L105.5,38.3 L95.9,38.3 L95.9,37.7 L99,37.1 L97,31.4 L91.9,31.4 L89.9,37.1 L92.6,37.7 L92.6,38.3 L85.9,38.3 C85.9,38.3 85.9,37.7 85.9,37.7 L85.9,37.7 Z" id="Fill-3" fill="#ffffff"></path>
            <path d="M113.2,29 C115.5,28.8 118.4,28.3 118.4,24.8 C118.4,22.5 117.3,21.1 115.2,21.1 C114.6,21.1 113.9,21.1 113.2,21.2 L113.2,29 Z M106.5,37.7 L109.3,37.1 L109.3,21.4 L106.5,20.8 L106.5,20.2 L116,20.2 C120.1,20.2 122.4,21.2 122.4,24.6 C122.4,27.3 120,28.7 118.6,29.2 L123,35.2 C124.1,36.7 124.7,37.5 125.9,37.8 L125.9,38.4 L125.1,38.4 C120.8,38.4 119.7,37.4 118,34.9 L114.5,29.9 L113.2,29.9 L113.2,37.2 L115.7,37.8 L115.7,38.4 L106.6,38.4 L106.6,37.7 L106.5,37.7 Z" id="Fill-5" fill="#ffffff"></path>
            <path d="M130.3,37.7 L133.1,37.1 L133.1,21.4 L130.3,20.8 L130.3,20.2 L144.6,20.2 L144.6,25.8 L143.6,25.8 C143,23.1 143.2,21.5 140.1,21.5 L136.9,21.5 L136.9,28.3 L140.4,28.1 L141,25.2 L141.6,25.2 L141.6,32.4 L141,32.4 L140.4,29.5 L136.9,29.3 L136.9,37.1 L140.6,37.1 C144.2,37.1 143.8,34.9 144.6,31.4 L145.5,31.4 L145.5,38.4 L130.2,38.4 L130.2,37.7 L130.3,37.7 Z" id="Fill-7" fill="#ffffff"></path>
            <path d="M146.7,37.7 L149.5,37.1 L149.5,21.4 L146.7,20.8 L146.7,20.2 L156.1,20.2 L156.1,20.8 L153.3,21.4 L153.3,36.9 L156.4,36.9 C158.6,36.9 159.2,36.5 159.6,34.7 L160.4,31.2 L161.3,31.2 L161.3,38.2 L146.6,38.2 L146.6,37.7 L146.7,37.7 Z" id="Fill-9" fill="#ffffff"></path>
            <path d="M129.6,30.2 C129.9,30.2 130.2,30.3 130.2,30.5 C130.2,30.8 129.8,30.9 129.5,31 C129,31.1 125.5,31.8 124.8,32.1 C124.4,32.2 124.1,32.5 124,32.5 C123.9,32.5 123.8,32.3 123.9,32.1 L124.2,30.5 C124.2,30.3 124.3,30.3 124.6,30.3 L129.6,30.3 L129.6,30.2 Z" id="Fill-11" fill="#ffffff"></path>
            <path d="M46.5,2.5 C46.5,2.3 46.5,1.9 46.6,1.7 C46.7,1.4 47.7,0.9 47.8,0.8 L47.9,0.9 C47.8,1 47.4,1.5 47.2,2 C47.1,2.2 47.1,2.3 47.1,2.5 L46.5,2.5 Z M45.6,2.1 C45.6,1.9 45.6,1.5 45.7,1.3 C45.8,1 46.8,0.5 46.9,0.4 L47,0.5 C46.9,0.6 46.5,1.1 46.3,1.6 C46.2,1.8 46.2,1.9 46.2,2.1 L45.6,2.1 Z" id="Fill-13" fill="#CB940F"></path>
            <path d="M46.9,4.5 L47.4,4.6 L48.9,1.7 L48.6,1.4 L48.7,1.3 L51.1,2.6 L50.5,3.7 L50.3,3.6 L50.4,3.1 C50.5,2.8 50.5,2.6 50.1,2.4 L49.6,2.2 L48.9,3.4 L49.6,3.7 L49.9,3.2 L50,3.2 L49.3,4.5 L49.2,4.4 L49.4,3.8 L48.8,3.4 L48,4.8 L48.4,5.2 L48.3,5.3 L46.7,4.4 L46.9,4.5 Z" id="Fill-15" fill="#CB940F"></path>
            <path d="M51.2,7 C51.7,7.4 52.4,6.9 53,6.1 C53.5,5.3 53.8,4.5 53.2,4.1 C52.7,3.7 52,4.2 51.4,5 C50.9,5.9 50.7,6.7 51.2,7 M50.8,4.6 C51.5,3.6 52.4,3.4 53.4,4 C54.3,4.6 54.3,5.5 53.6,6.5 C52.9,7.5 52,7.7 51,7.1 C50.1,6.5 50.1,5.7 50.8,4.6" id="Fill-17" fill="#CB940F"></path>
            <path d="M55.2,7.9 C55.5,8.2 56,8.4 56.5,7.9 C56.8,7.6 56.9,7.2 56.6,6.9 C56.5,6.8 56.4,6.7 56.3,6.7 L55.2,7.9 Z M53,8.4 L53.5,8.7 L55.7,6.2 L55.4,5.8 L55.5,5.7 L56.8,6.9 C57.4,7.4 57.5,7.9 57.1,8.4 C56.7,8.8 56.2,8.7 55.9,8.6 L55.7,10.1 C55.6,10.5 55.6,10.7 55.7,10.9 L55.6,10.9 L55.5,10.8 C54.9,10.3 54.9,10 55,9.4 L55.2,8.2 L55,8 L54,9.1 L54.2,9.5 L54.1,9.6 L53,8.4 Z" id="Fill-19" fill="#CB940F"></path>
            <path d="M57.6,13 L58,13.4 L60.6,11.5 L60.4,11.2 C60.2,10.9 60,10.9 59.7,11.1 L59.1,11.4 L59,11.2 L60.1,10.4 L62,12.9 L60.9,13.7 L60.8,13.6 L61.2,13.1 C61.4,12.8 61.5,12.7 61.3,12.4 L61.1,12.1 L58.5,14 L58.7,14.5 L58.6,14.6 L57.6,13 Z" id="Fill-21" fill="#CB940F"></path>
            <polygon id="Fill-23" fill="#CB940F" points="59.3 15.4 59.7 15.8 62.5 14.2 62.4 13.7 62.5 13.6 63.4 15.1 63.3 15.2 62.9 14.8 61.6 15.5 62.3 16.7 63.5 16 63.4 15.5 63.5 15.4 64.4 16.9 64.3 17 63.9 16.6 61.1 18.2 61.2 18.7 61.1 18.8 60.2 17.3 60.3 17.2 60.7 17.6 62.1 16.8 61.4 15.6 60 16.4 60.1 16.9 60 17 59.1 15.5"></polygon>
            <path d="M61.4,19.2 L61.7,19.6 L64.7,18.4 L64.6,17.9 L64.7,17.9 L65.7,20.4 L64.6,20.8 L64.6,20.6 C65.1,20.3 65.4,20.2 65.2,19.7 L65,19.2 L63.7,19.7 L64,20.3 L64.6,20.2 L64.6,20.3 L63.2,20.9 L63.2,20.8 L63.7,20.5 L63.5,19.9 L62,20.5 L62.3,21.1 C62.5,21.7 62.9,21.5 63.7,21.3 L63.8,21.5 L62.5,22 L61.4,19.4 L61.4,19.2 Z" id="Fill-25" fill="#CB940F"></path>
            <path d="M63.2,24.2 L63.4,24.7 L66.6,24 L66.6,23.5 L66.7,23.5 L67.1,25.2 L67,25.2 L66.8,24.7 L63.6,25.4 L63.7,26 C63.8,26.4 63.9,26.5 64.3,26.5 L65,26.5 L65,26.7 L63.6,27 L63.1,24.2 L63.2,24.2 Z" id="Fill-27" fill="#CB940F"></path>
            <path d="M64.1,29.1 C64.2,29.7 65,29.9 65.9,29.8 C66.8,29.7 67.6,29.3 67.5,28.7 C67.4,28.1 66.6,27.9 65.7,28 C64.8,28.1 64,28.5 64.1,29.1 M65.7,27.3 C66.9,27.2 67.7,27.7 67.8,28.9 C67.9,30 67.2,30.6 66,30.7 C64.8,30.8 64,30.3 63.9,29.1 C63.8,28 64.4,27.4 65.7,27.3" id="Fill-29" fill="#CB940F"></path>
            <path d="M66,32.7 C66,33.1 66.1,33.7 66.8,33.7 C67.3,33.7 67.6,33.5 67.6,33.1 L67.6,32.7 L66,32.7 Z M64.3,31.4 L64.4,31.9 L67.6,32 L67.7,31.5 L67.8,31.5 L67.7,33.3 C67.7,34.1 67.4,34.5 66.8,34.5 C66.2,34.5 66,34 65.9,33.8 L64.6,34.6 C64.3,34.8 64.1,34.9 64,35.1 L63.9,35.1 L63.9,34.9 C63.9,34.1 64.1,33.9 64.7,33.6 L65.7,33 L65.7,32.8 L64.2,32.8 L64.1,33.3 L64,33.3 L64.1,31.6 L64.3,31.4 Z" id="Fill-31" fill="#CB940F"></path>
            <path d="M64.1,36.6 C64.1,36.7 64,36.8 64,37 C63.9,37.7 64.6,38.3 65.4,38.4 C66.3,38.5 67.1,38.3 67.3,37.5 L67.3,37.2 L64.1,36.6 Z M64.1,35.4 L64.1,35.9 L67.3,36.4 L67.5,35.9 L67.6,35.9 L67.3,37.5 C67.2,38.4 66.7,39.4 65.2,39.1 C63.8,38.9 63.4,38.1 63.6,37 L63.9,35.3 L64.1,35.4 Z" id="Fill-33" fill="#CB940F"></path>
            <polygon id="Fill-35" fill="#CB940F" points="62.7 41.9 62.6 42.5 63.8 42.9 66 42.8 66.3 42.4 66.4 42.4 65.8 44 65.7 44 65.7 43.5 63.9 43.5 65.3 44.7 65.6 44.2 65.7 44.2 65.3 45.4 65.2 45.4 65.2 45 63.6 43.5 62.4 43.1 62.1 43.6 62 43.6 62.6 41.9"></polygon>
            <path d="M60.8,46.3 C60.5,46.9 61.1,47.5 61.9,47.9 C62.7,48.3 63.6,48.4 63.9,47.9 C64.2,47.3 63.6,46.7 62.8,46.3 C61.9,45.9 61.1,45.8 60.8,46.3 M63.1,45.6 C64.2,46.2 64.5,47.1 64,48.1 C63.5,49.1 62.6,49.2 61.5,48.6 C60.4,48 60.1,47.2 60.6,46.1 C61.2,45.2 62,45.1 63.1,45.6" id="Fill-37" fill="#CB940F"></path>
            <path d="M58.9,51.5 C58.2,51 58,50.5 58.5,49.7 C59.2,48.7 59.9,49.1 60.6,49.6 L62.2,50.7 L62.6,50.4 L62.7,50.5 L61.7,51.9 L61.6,51.8 L61.8,51.3 L59.9,50 C59.4,49.7 59,49.6 58.6,50.1 C58.1,50.8 58.7,51.2 59.1,51.5 L60.8,52.7 L61.2,52.3 L61.3,52.4 L60.6,53.4 L60.6,53.3 L60.7,52.9 L58.9,51.5 Z" id="Fill-39" fill="#CB940F"></path>
            <path d="M57.9,53.7 C57.6,54 57.4,54.5 57.9,55 C58.2,55.3 58.6,55.4 58.9,55.1 C59,55 59.1,54.9 59.1,54.8 L57.9,53.7 Z M57.4,51.6 L57.2,52.1 L59.6,54.2 L60,53.9 L60.1,54 L58.9,55.3 C58.4,55.9 57.9,56 57.4,55.6 C57,55.2 57.1,54.7 57.2,54.4 L55.7,54.2 C55.3,54.1 55.1,54.1 54.9,54.2 L55,54.1 C55.5,53.5 55.8,53.5 56.4,53.6 L57.6,53.8 L57.8,53.6 L56.7,52.6 L56.3,52.9 L56.2,52.8 L57.4,51.6 Z" id="Fill-41" fill="#CB940F"></path>
            <path d="M51.2,58.1 C51.1,58 51,57.9 50.9,57.9 C51,57.7 51.2,57.1 51.7,56.8 C52.6,56.1 53.4,56.3 54.2,57.3 C54.9,58.3 54.9,59.3 54.1,59.9 C53.7,60.2 53.4,60.3 52.9,60.4 L52.3,59.6 L52.4,59.5 L52.8,59.8 C53.1,60 53.4,60.1 53.8,59.9 C54.4,59.5 54.2,58.7 53.6,57.8 C53,57 52.3,56.6 51.8,57 C51.6,57.1 51.5,57.3 51.5,57.5 L52.2,58.4 L52.7,58.2 L52.8,58.3 L51.5,59.3 L51.4,59.2 L51.6,58.9 L51.2,58.1 Z" id="Fill-43" fill="#CB940F"></path>
            <path d="M48.7,58.9 C48.2,59.2 48.3,60 48.8,60.9 C49.3,61.7 49.9,62.3 50.5,62 C51,61.7 50.9,60.9 50.4,60 C49.9,59.1 49.3,58.6 48.7,58.9 M51,59.6 C51.6,60.7 51.4,61.6 50.4,62.2 C49.5,62.7 48.6,62.4 48,61.3 C47.4,60.2 47.6,59.3 48.6,58.7 C49.6,58.1 50.4,58.5 51,59.6" id="Fill-45" fill="#CB940F"></path>
            <path d="M45.6,60.6 C45.5,60.6 45.4,60.7 45.2,60.7 C44.5,61 44.4,61.8 44.7,62.6 C45,63.4 45.7,64 46.4,63.7 C46.5,63.7 46.6,63.6 46.7,63.5 L45.6,60.6 Z M46.7,60 L46.3,60.3 L47.5,63.3 L48,63.2 L48,63.3 L46.6,63.9 C45.8,64.2 44.7,64.4 44.1,62.9 C43.6,61.6 44,60.9 45.1,60.4 L46.7,59.8 L46.7,60 Z" id="Fill-47" fill="#CB940F"></path>
            <path d="M40.2,64.1 C39.9,64.2 39.3,64.4 39.5,65.1 C39.6,65.5 39.8,65.7 40.2,65.6 C40.3,65.6 40.4,65.6 40.5,65.5 L40.2,64.1 Z M39.9,62.3 L39.6,62.3 C39.2,62.4 38.9,62.7 39,63.2 C39.1,63.8 39.6,64 40,63.9 L40.2,63.9 L39.9,62.3 Z M41.1,62 L40.6,62.2 L41.2,65.4 L41.7,65.4 L41.7,65.5 L39.9,65.8 C39.3,65.9 38.8,65.8 38.7,65.2 C38.6,64.5 39.1,64.2 39.6,64.1 C39.1,64.1 38.4,64.2 38.2,63.4 C38.1,62.6 38.7,62.3 39.3,62.1 L41,61.8 L41.1,62 Z" id="Fill-49" fill="#CB940F"></path>
            <path d="M36.4,64.5 C36,64.6 35.4,64.7 35.5,65.4 C35.5,65.9 35.7,66.1 36.1,66.1 L36.5,66.1 L36.4,64.5 Z M37.6,62.6 L37.1,62.8 L37.3,66 L37.8,66.1 L37.8,66.2 L36,66.3 C35.2,66.3 34.8,66.2 34.8,65.5 C34.8,64.9 35.2,64.6 35.4,64.5 L34.5,63.3 C34.3,63 34.2,62.8 33.9,62.8 L33.9,62.7 L34.1,62.7 C34.9,62.6 35.1,62.8 35.5,63.3 L36.2,64.3 L36.4,64.3 L36.3,62.8 L35.8,62.7 L35.8,62.6 L37.5,62.5 L37.6,62.6 Z" id="Fill-51" fill="#CB940F"></path>
            <polygon id="Fill-53" fill="#CB940F" points="33.6 62.8 33.1 62.9 33 66.1 33.5 66.3 33.5 66.4 31.7 66.3 31.7 66.2 32.2 66.1 32.3 62.9 31.8 62.7 31.8 62.6 33.6 62.7"></polygon>
            <polygon id="Fill-55" fill="#CB940F" points="31.4 62.7 30.9 62.8 30.4 66 30.9 66.2 30.9 66.3 29.7 66.1 28.4 63.2 28.1 65.7 28.7 65.9 28.7 66 27.4 65.8 27.4 65.7 27.8 65.6 28.3 62.1 28.7 62.2 30.2 65.7 30.5 62.8 29.9 62.6 29.9 62.5 31.3 62.7"></polygon>
            <path d="M24.5,61.9 C24.5,61.7 24.6,61.7 24.5,61.6 C24.7,61.5 25.3,61.4 25.9,61.5 C27,61.8 27.3,62.6 27,63.7 C26.7,64.9 25.9,65.5 24.9,65.2 C24.4,65.1 24.2,64.9 23.8,64.6 L24.1,63.6 L24.3,63.6 L24.3,64.1 C24.3,64.5 24.4,64.8 24.8,64.9 C25.5,65.1 26,64.5 26.3,63.5 C26.6,62.5 26.4,61.8 25.8,61.6 C25.6,61.5 25.4,61.6 25.2,61.6 L24.9,62.7 L25.4,63 L25.4,63.1 L23.9,62.7 L23.9,62.6 L24.3,62.6 L24.5,61.9 Z" id="Fill-57" fill="#CB940F"></path>
            <path d="M21.1,63.2 C21.1,63.5 21.2,63.7 21.4,63.8 C21.7,63.9 22,63.8 22.1,63.5 C22.4,62.7 20.8,62.2 21.3,61 C21.5,60.4 22.2,60.1 22.8,60.3 C23.3,60.5 23.6,60.9 23.7,61 L23.3,62.1 L23.2,62.2 L23.3,61.6 C23.3,61.2 23.3,60.8 22.9,60.7 C22.5,60.6 22.2,60.7 22,61.1 C21.7,61.9 23.3,62.3 22.8,63.5 C22.6,64.1 22,64.3 21.4,64.1 C21.1,64 20.8,63.8 20.6,63.5 L21,62.6 L21.2,62.7 L21.1,63.2 Z" id="Fill-59" fill="#CB940F"></path>
            <polygon id="Fill-61" fill="#CB940F" points="18.9 58.8 18.4 58.6 17.8 59.7 17.5 61.8 17.8 62.1 17.6 62.3 16.2 61.4 16.3 61.3 16.7 61.4 17 59.6 15.6 60.7 16 61.1 16 61.2 14.9 60.5 15 60.4 15.4 60.5 17.2 59.3 17.8 58.2 17.4 57.8 17.5 57.7 19 58.6"></polygon>
            <path d="M15,56.1 C14.5,55.7 13.8,56.1 13.2,56.9 C12.6,57.6 12.3,58.4 12.8,58.8 C13.3,59.2 14,58.8 14.6,58 C15.2,57.3 15.5,56.5 15,56.1 M15.2,58.5 C14.4,59.5 13.5,59.6 12.6,58.9 C11.8,58.2 11.8,57.3 12.6,56.4 C13.4,55.4 14.3,55.3 15.2,56 C16.1,56.7 16,57.6 15.2,58.5" id="Fill-63" fill="#CB940F"></path>
            <path d="M10.3,53.2 C10.9,52.7 11.5,52.5 12.1,53.2 C13,54.1 12.5,54.7 11.8,55.3 L10.4,56.6 L10.7,57.1 L10.6,57.2 L9.4,55.9 L9.5,55.8 L9.9,56.1 L11.6,54.5 C12,54.1 12.2,53.7 11.7,53.3 C11.1,52.7 10.6,53.2 10.2,53.5 L8.7,55 L9,55.5 L8.9,55.6 L8,54.7 L8.1,54.6 L8.5,54.8 L10.3,53.2 Z" id="Fill-65" fill="#CB940F"></path>
            <polygon id="Fill-67" fill="#CB940F" points="9.4 50.2 9 49.9 6.3 51.7 6.5 52.2 6.4 52.2 5.4 50.8 5.5 50.7 5.9 51 8.6 49.2 8.4 48.7 8.5 48.6"></polygon>
            <polygon id="Fill-69" fill="#CB940F" points="8.1 48.4 7.8 48 4.9 49.5 5 50 4.9 50.1 4.3 49 5.9 46.2 3.8 47.4 4 48.2 3.9 48.3 3.3 47.1 3.4 47 3.7 47.3 6.8 45.7 7 46 5.1 49.3 7.6 47.8 7.5 47.2 7.6 47.1 8.3 48.3"></polygon>
            <path d="M6.1,44.4 L5.8,43.9 L2.8,45.1 L2.9,45.5 C3,45.8 3.2,45.9 3.5,45.8 L4.1,45.7 L4.2,45.9 L3,46.4 L1.9,43.5 L3.1,43 L3.2,43.2 L2.6,43.4 C2.3,43.6 2.2,43.7 2.4,44 L2.5,44.4 L5.5,43.2 L5.4,42.6 L5.5,42.6 L6.2,44.3 L6.1,44.4 Z" id="Fill-71" fill="#CB940F"></path>
            <path d="M4.6,39.9 C4.4,39.3 3.6,39.2 2.6,39.5 C1.7,39.7 1,40.2 1.1,40.8 C1.3,41.4 2.1,41.5 3,41.3 C4,41 4.7,40.5 4.6,39.9 M3.3,42 C2.1,42.3 1.2,41.9 1,40.8 C0.7,39.7 1.3,39.1 2.5,38.7 C3.7,38.4 4.5,38.8 4.8,39.9 C5.1,41 4.5,41.7 3.3,42" id="Fill-73" fill="#CB940F"></path>
            <path d="M2.2,34.8 L2.2,34 L0.9,34.5 L2.2,34.8 Z M3.7,35.8 L3.6,35.4 L0,34.3 L0,33.9 L3.5,32.6 L3.5,32.2 L3.6,32.2 L3.7,34 L3.6,34 L3.4,33.4 L2.2,33.8 L2.3,34.8 L3.6,35.1 L3.7,34.6 L3.8,34.6 L3.9,35.8 L3.7,35.8 Z" id="Fill-75" fill="#CB940F"></path>
            <path d="M3.5,26.7 L3.8,26.7 C3.9,26.9 4.1,27.4 4.1,28.1 C4,29.2 3.2,29.7 2,29.5 C0.8,29.3 0.1,28.6 0.2,27.6 C0.3,27.1 0.4,26.8 0.7,26.5 L1.7,26.6 L1.7,26.8 L1.2,26.9 C0.8,27 0.5,27.1 0.5,27.6 C0.4,28.3 1.1,28.7 2.1,28.9 C3.1,29 3.8,28.8 3.9,28.2 C3.9,28 3.9,27.8 3.8,27.6 L2.6,27.3 L2.4,27.8 L2.3,27.8 L2.5,26.2 L2.6,26.2 L2.7,26.6 L3.5,26.7 Z" id="Fill-77" fill="#CB940F"></path>
            <path d="M4.6,24.3 C4.8,23.7 4.1,23.2 3.2,23 C2.3,22.8 1.4,22.8 1.3,23.4 C1.1,24 1.8,24.5 2.7,24.7 C3.6,25 4.4,25 4.6,24.3 M2.5,25.5 C1.3,25.2 0.8,24.4 1.1,23.3 C1.4,22.2 2.2,21.9 3.4,22.2 C4.6,22.5 5.1,23.3 4.8,24.4 C4.5,25.6 3.7,25.9 2.5,25.5" id="Fill-79" fill="#CB940F"></path>
            <path d="M5.8,20.5 C6,19.9 5.4,19.3 4.5,19 C3.6,18.6 2.8,18.6 2.5,19.2 C2.3,19.8 2.9,20.4 3.8,20.7 C4.8,21.1 5.6,21.1 5.8,20.5 M3.6,21.5 C2.5,21 2,20.2 2.5,19.1 C2.9,18.1 3.8,17.9 4.9,18.3 C6,18.8 6.5,19.6 6,20.7 C5.6,21.7 4.7,21.9 3.6,21.5" id="Fill-81" fill="#CB940F"></path>
            <path d="M7.2,17.3 C7.3,17.2 7.4,17.2 7.4,17.1 C7.8,16.5 7.3,15.7 6.5,15.3 C5.7,14.9 4.8,14.8 4.5,15.5 C4.4,15.6 4.4,15.7 4.4,15.8 L7.2,17.3 Z M6.7,18.5 L6.8,18 L4,16.4 L3.6,16.8 L3.6,16.7 L4.4,15.3 C4.8,14.5 5.6,13.7 6.9,14.5 C8.1,15.2 8.2,16.1 7.7,17 L6.8,18.5 L6.7,18.5 Z" id="Fill-83" fill="#CB940F"></path>
            <path d="M9.9,13.4 L10.1,12.9 L7.6,10.8 L7.2,11.2 L7.1,11.1 L8.2,9.8 L8.3,9.9 L8.1,10.4 L10.6,12.5 L11,12.1 C11.3,11.8 11.3,11.7 11,11.3 L10.5,10.7 L10.6,10.6 L11.7,11.5 L9.9,13.4 Z" id="Fill-85" fill="#CB940F"></path>
            <path d="M11.8,9 L12.4,8.4 L11.2,7.7 L11.8,9 Z M12,10.9 L12.3,10.5 L10.8,7 L11.1,6.8 L14.3,8.7 L14.7,8.5 L14.8,8.6 L13.5,9.8 L13.4,9.7 L13.7,9.2 L12.6,8.6 L11.9,9.2 L12.4,10.3 L12.9,10.1 L13,10.2 L12,10.9 Z" id="Fill-87" fill="#CB940F"></path>
            <polygon id="Fill-89" fill="#CB940F" points="15 8.2 15.3 7.8 13.5 5.1 13 5.3 12.9 5.2 13.9 4.5 16.8 5.8 15.3 3.8 14.7 4.1 14.6 4 15.8 3.2 15.9 3.3 15.6 3.6 17.6 6.5 17.3 6.7 13.8 5.2 15.6 7.6 16.2 7.3 16.3 7.4"></polygon>
            <path d="M19.3,5.2 C19.4,5.2 19.5,5.1 19.6,5.1 C20.2,4.8 20.3,3.9 19.9,3.1 C19.5,2.3 18.8,1.8 18.1,2.2 C18,2.3 17.9,2.3 17.8,2.4 L19.3,5.2 Z M18.2,5.9 L18.6,5.6 L17.1,2.7 L16.6,2.8 L16.5,2.7 L17.9,2 C18.7,1.6 19.7,1.3 20.5,2.7 C21.1,3.9 20.8,4.7 19.8,5.2 L18.3,6 L18.2,5.9 Z" id="Fill-91" fill="#CB940F"></path>
            <path d="M22.2,2.1 C22.2,2 22.1,1.3 21.9,0.8 C21.8,0.6 21.8,0.5 21.6,0.3 L22,1.42108547e-14 C22.1,0.1 22.4,0.4 22.5,0.6 C22.6,0.9 22.3,1.9 22.3,2 L22.2,2.1 Z M21.3,2.5 C21.3,2.4 21.2,1.7 21,1.2 C20.9,1 20.9,0.9 20.7,0.7 L21.1,0.4 C21.2,0.5 21.5,0.8 21.6,1 C21.7,1.3 21.4,2.3 21.4,2.4 L21.3,2.5 Z" id="Fill-93" fill="#CB940F"></path>
            <path d="M20.2,12.7 C19.8,12.4 19.4,12.3 18.9,12.6 C18.4,12.9 18.2,13.4 18.6,13.9 C19.4,15.1 21.8,13.3 23,15.1 C23.6,16.1 23.5,17.3 22.4,18 C21.7,18.5 20.7,18.6 20.4,18.7 L19.2,17 L19.5,16.8 L20.3,17.5 C20.8,17.9 21.4,18.3 22,17.9 C22.6,17.5 22.8,16.8 22.4,16.3 C21.6,15.1 19.3,17 18,15.1 C17.4,14.1 17.6,13.1 18.6,12.5 C19.1,12.2 19.7,12 20.3,11.9 L21.3,13.4 L21,13.6 L20.2,12.7 Z" id="Fill-95" fill="#CB940F"></path>
            <path d="M25.1,13.3 L26.5,12.8 L25.1,10.8 L25.1,13.3 Z M23.9,16.4 L24.6,15.9 L24.8,9.3 L25.4,9.1 L29.2,14.4 L30.1,14.4 L30.2,14.6 L27.1,15.6 L27,15.4 L27.9,14.9 L26.6,13.2 L25,13.7 L25,15.9 L25.9,15.8 L26,16 L23.9,16.7 L23.9,16.4 Z" id="Fill-97" fill="#CB940F"></path>
            <path d="M32.4,11.2 C33.2,11.1 34.1,10.9 34.1,9.6 C34.1,8.8 33.7,8.3 33,8.3 C32.8,8.3 32.6,8.3 32.3,8.4 L32.4,11.2 Z M30.2,14.4 L31.1,14.2 L31,8.6 L30.1,8.4 L30.1,8.2 L33.3,8.1 C34.7,8.1 35.5,8.4 35.5,9.6 C35.5,10.6 34.7,11.1 34.3,11.3 L35.8,13.4 C36.2,13.9 36.4,14.2 36.8,14.3 L36.8,14.5 L36.5,14.5 C35,14.5 34.7,14.2 34.1,13.3 L32.9,11.5 L32.5,11.5 L32.5,14.1 L33.3,14.3 L33.3,14.5 L30.2,14.6 L30.2,14.4 Z" id="Fill-99" fill="#CB940F"></path>
            <path d="M38.9,14.8 L39.8,14.9 L41.8,9.6 L41,9.1 L41.1,8.9 L45.6,10.6 L44.9,12.5 L44.6,12.4 C44.8,11.4 45,10.9 44,10.5 L43,10.1 L42.1,12.4 L43.2,12.7 L43.8,11.8 L44,11.9 L43.1,14.3 L42.9,14.2 L43.1,13.1 L42,12.6 L41,15.2 L42.2,15.6 C43.3,16 43.5,15.3 44.2,14.2 L44.5,14.3 L43.6,16.8 L38.8,15 L38.9,14.8 Z" id="Fill-101" fill="#CB940F"></path>
            <path d="M43.7,16.7 L44.6,17.1 L47.9,12.5 L47.3,11.8 L47.4,11.6 L50,13.4 L49.9,13.6 L49,13.2 L45.8,17.8 L46.7,18.4 C47.3,18.8 47.5,18.8 48,18.4 L48.9,17.5 L49.2,17.7 L47.6,19.7 L43.6,16.8 L43.7,16.7 Z" id="Fill-103" fill="#CB940F"></path>
            <path d="M39.3,12.1 C39.5,12.1 39.6,12.2 39.6,12.3 C39.6,12.4 39.4,12.4 39.2,12.4 C38.9,12.4 37.2,12.3 36.9,12.4 C36.7,12.4 36.5,12.5 36.5,12.5 C36.4,12.5 36.4,12.4 36.5,12.3 L36.8,11.7 C36.8,11.6 36.9,11.6 37,11.7 L39.3,12.1 Z" id="Fill-105" fill="#CB940F"></path>
            <path d="M28.4,37.7 C28.2,38 27.8,38.4 27.4,38.9 L27.3,39 C27.3,39 27.2,39 27.2,38.9 L27.2,38.7 C27.2,38.6 27.5,38.2 28.1,37.4 C28.2,37.3 28.2,37.2 28.2,37.1 C28.2,37 28.2,36.9 28.1,36.8 C28.1,36.7 28,36.6 27.8,36.6 L26.8,36.6 C26.6,36.6 26.4,36.6 26.3,36.5 C26.1,36.4 26.1,36.3 26.1,36.1 L26.1,35.4 L26.1,34.7 C26.1,34.6 26.1,34.6 26,34.5 C25.9,34.5 25.9,34.4 25.9,34.3 C25.9,34.2 25.9,34 26,33.9 C26,33.7 26.1,33.6 26.2,33.6 L26.4,33.7 L26.5,33.8 L26.5,33.9 C26.5,34 26.5,34.1 26.4,34.2 C26.3,34.5 26.3,34.8 26.3,35.1 L26.3,35.6 L26.3,35.8 C26.3,35.8 26.4,35.9 26.5,35.9 L27.8,35.9 C28.1,35.9 28.1,35.9 28.2,36.2 C28.3,36.7 28.3,37.1 28.3,37.3 C28.6,37.3 28.5,37.5 28.4,37.7" id="Fill-107" fill="#CB940F"></path>
            <path d="M30.9,40.1 C30.7,40.1 30.6,40 30.6,39.8 C30.6,39.6 30.7,39.5 30.9,39.5 C31.1,39.5 31.2,39.6 31.2,39.8 C31.2,39.9 31.1,40.1 30.9,40.1 M30,40.1 C29.8,40.1 29.7,40 29.7,39.8 C29.7,39.6 29.8,39.5 30,39.5 C30.2,39.5 30.3,39.6 30.3,39.8 C30.3,39.9 30.2,40.1 30,40.1" id="Fill-109" fill="#CB940F"></path>
            <path d="M31.9,36.8 C31.9,36.9 31.8,37 31.7,37 C31.7,37 31.6,37 31.5,36.9 C31.4,36.8 31.4,36.8 31.4,36.8 C31.3,36.8 31.3,36.9 31.2,37 C31.1,37.1 31.1,37.2 31.1,37.3 C31.1,37.4 31.2,37.4 31.3,37.6 L31.5,37.8 L31.8,38.1 C31.9,38.2 31.9,38.3 31.9,38.5 C31.9,38.8 31.8,39 31.7,39 C31.7,39 31.6,39 31.6,38.9 C31.4,38.6 31,38.3 30.5,37.8 L29.9,37.2 L29.8,37.1 L29.6,37.3 C29.5,37.4 29.5,37.5 29.5,37.6 C29.5,37.8 29.7,38.1 30.2,38.4 C30.3,38.5 30.3,38.5 30.3,38.6 C30.3,38.7 30.3,38.8 30.2,38.9 C30.1,39 30.1,39.1 30,39.1 C29.9,39.1 29.9,39.1 29.8,39 C29.7,38.9 29.7,38.9 29.6,38.9 C29.5,38.9 29.3,39 29.2,39 C29.2,39 29.1,39 29.1,38.9 C29.1,38.8 29.2,38.6 29.2,38.5 C29.2,38.4 29.2,38.3 29.1,38.2 C29.1,38.1 29,38 29,37.9 C29,37.7 29.1,37.5 29.2,37.2 C29.4,37 29.4,36.8 29.4,36.8 C29.4,36.8 29.3,36.7 29.2,36.6 C29.1,36.5 29,36.4 29,36.3 C29,36.2 29,36.1 29.1,36 C29.2,35.8 29.3,35.7 29.3,35.7 L29.4,35.8 C29.4,35.9 29.5,35.9 29.5,35.9 C29.6,36.1 29.9,36.4 30.5,36.9 C30.6,36.9 30.6,37 30.7,37 C30.8,37 30.8,37 30.9,36.9 C31,36.8 31,36.7 31,36.7 C31,36.6 31,36.6 30.9,36.5 C30.8,36.4 30.8,36.3 30.8,36.3 C30.8,36.2 30.8,36.1 30.9,36 L31.1,35.8 L31.2,35.9 C31.3,36 31.4,36.2 31.6,36.4 C31.7,36.5 31.8,36.7 31.8,36.8 C31.9,36.6 31.9,36.7 31.9,36.8" id="Fill-111" fill="#CB940F"></path>
            <path d="M34.9,37.2 C34.8,37.3 34.8,37.4 34.7,37.4 L33,37.4 C32.8,37.4 32.7,37.4 32.6,37.3 L32.6,37.2 C32.6,37.1 32.6,37 32.7,36.9 C32.8,36.8 32.8,36.7 32.9,36.7 L34.6,36.7 C34.9,36.7 35,36.8 35,36.9 C35,37 35,37.1 34.9,37.2" id="Fill-113" fill="#CB940F"></path>
            <path d="M38,38.5 C38,38.6 38,38.7 37.9,38.8 L37.8,38.9 C37.8,38.9 37.7,38.8 37.7,38.7 L37.7,37.9 L37.7,37.1 L37.7,36.7 C37.7,36.6 37.6,36.5 37.5,36.5 L37.2,36.5 L36.2,36.5 C35.9,36.5 35.8,36.4 35.8,36.3 C35.8,36.3 35.8,36.1 35.9,35.9 C36,35.7 36.1,35.6 36.1,35.6 C36.1,35.6 36.2,35.8 36.4,35.8 L36.7,35.8 L37.5,35.8 C37.8,35.8 37.9,35.9 38,36 C38,36.1 38.1,36.3 38.1,36.6 C38,37.3 38,38 38,38.5" id="Fill-115" fill="#CB940F"></path>
            <path d="M40.9,39.9 L40.3,39.9 L40.3,40.3 L40.3,40.4 L40.3,40.8 L39.9,40.8 L39.9,40.4 C39.9,40.4 39.9,40.3 40,39.9 L39.4,39.9 L39.4,39.5 L40.8,39.5 L40.8,39.9 L40.9,39.9 Z" id="Fill-117" fill="#CB940F"></path>
            <path d="M41.8,36.7 L41.6,36.9 C41.5,37 41.3,37.3 41.1,37.9 C40.9,38.4 40.8,38.6 40.6,38.7 C40.5,38.7 40.2,38.8 40,38.9 L39.4,39 L39.2,39 C39.1,39 39.1,38.9 39,38.8 L38.8,38 C38.7,37.7 38.7,37.5 38.7,37.2 C38.7,37.1 38.7,37 38.8,36.9 C38.9,36.8 38.9,36.7 38.9,36.6 L38.7,36.4 C38.6,36.4 38.6,36.3 38.6,36.2 C38.6,36.1 38.6,36 38.7,35.9 C38.8,35.7 38.8,35.7 38.9,35.7 L39.1,35.8 L39.4,36 C39.5,36.1 39.6,36.2 39.6,36.3 C39.6,36.4 39.6,36.5 39.5,36.6 C39.4,36.7 39.4,36.8 39.3,36.8 L39.2,36.8 C39.1,36.8 39,36.9 39,37.1 C39,37.2 39.1,37.5 39.2,38 C39.2,38.1 39.2,38.2 39.3,38.2 L39.4,38.1 L39.9,36.7 C39.9,36.5 40,36.3 40.2,36 C40.2,35.9 40.3,35.9 40.3,35.9 C40.4,35.9 40.5,36 40.8,36.2 C40.9,36.3 40.9,36.3 40.9,36.4 C40.9,36.5 40.9,36.6 40.8,36.7 C40.7,36.8 40.7,36.9 40.6,36.9 C40.6,36.9 40.5,36.9 40.4,36.8 L40.3,36.7 C40.3,36.7 40.2,36.7 40.2,36.8 C39.8,37.7 39.6,38.2 39.6,38.3 C39.6,38.3 39.6,38.4 39.7,38.4 C39.7,38.4 39.9,38.4 40.2,38.3 L40.6,38.2 C40.7,38.2 40.9,38.1 41,38 C41.1,37.9 41.2,37.8 41.2,37.6 L41.4,37.1 L41.4,37 C41.4,37 41.4,36.9 41.3,36.8 C41.2,36.7 41.2,36.6 41.2,36.5 C41.2,36.4 41.3,36.2 41.6,36 L41.7,36 C41.7,36 41.8,36.1 41.8,36.2 C41.8,36.2 41.9,36.3 41.9,36.4 C42,36.5 42.1,36.6 42.1,36.8 C41.9,36.5 41.9,36.6 41.8,36.7" id="Fill-119" fill="#CB940F"></path>
            <path d="M55.8,28.8 L55,28.1 C55,28.1 53.1,28 52.3,25.5 C52.3,25.5 53.8,25.3 55.2,28 C55.2,28 55.6,28.5 55.9,28.6 L55.8,28.8 Z" id="Fill-121" fill="#CB940F"></path>
            <path d="M55.1,25.1 L54.3,24.4 C54.3,24.4 52.4,24.3 51.6,21.8 C51.6,21.8 53.1,21.6 54.5,24.3 C54.5,24.3 54.9,24.8 55.2,24.9 L55.1,25.1 Z" id="Fill-123" fill="#CB940F"></path>
            <path d="M55.8,28.9 L56.2,28 C56.2,28 57.8,27.2 57.5,24.8 C57.5,24.8 56.1,25.2 56.1,28 C56.1,28 56,28.6 55.8,28.8 L55.8,28.9 Z" id="Fill-125" fill="#CB940F"></path>
            <path d="M55.3,25.5 L55.4,24.5 C55.4,24.5 56.6,23.2 55.6,21 C55.6,21 54.4,21.8 55.2,24.5 C55.2,24.5 55.3,25.1 55.1,25.3 L55.3,25.5 Z" id="Fill-127" fill="#CB940F"></path>
            <path d="M55.7,32.2 L55,31.5 C55,31.5 53.3,31.2 52.8,28.9 C52.8,28.9 54.2,28.9 55.2,31.4 C55.2,31.4 55.5,31.9 55.8,32 L55.7,32.2 Z" id="Fill-129" fill="#CB940F"></path>
            <path d="M55.7,32.2 L56.6,31.3 C56.6,31.3 58.9,30.9 59.5,27.8 C59.5,27.8 57.6,27.8 56.4,31.2 C56.4,31.2 56,31.9 55.7,32 L55.7,32.2 Z" id="Fill-131" fill="#CB940F"></path>
            <path d="M35.4,51.2 L35.6,49.5 C35.6,49.5 34.1,46.8 36.9,43.5 C36.9,43.5 38.5,45.5 35.9,49.6 C35.9,49.6 35.5,50.6 35.6,51.1 L35.4,51.2 Z" id="Fill-133" fill="#CB940F"></path>
            <path d="M39.9,48.5 L40.1,46.8 C40.1,46.8 38.6,44.1 41.4,40.8 C41.4,40.8 43,42.8 40.4,46.9 C40.4,46.9 40,47.9 40.1,48.4 L39.9,48.5 Z" id="Fill-135" fill="#CB940F"></path>
            <path d="M43.6,46.6 L43.8,44.9 C43.8,44.9 42.3,42.2 45.1,38.9 C45.1,38.9 46.7,40.9 44.1,45 C44.1,45 43.7,46 43.8,46.5 L43.6,46.6 Z" id="Fill-137" fill="#CB940F"></path>
            <path d="M46.3,44.7 L46.5,43 C46.5,43 45,40.3 47.8,37 C47.8,37 49.4,39 46.8,43.1 C46.8,43.1 46.4,44.1 46.5,44.6 L46.3,44.7 Z" id="Fill-139" fill="#CB940F"></path>
            <path d="M50,41.9 L50.2,40.2 C50.2,40.2 48.7,37.5 51.5,34.2 C51.5,34.2 53.1,36.2 50.5,40.3 C50.5,40.3 50.1,41.3 50.2,41.8 L50,41.9 Z" id="Fill-141" fill="#CB940F"></path>
            <path d="M54.2,36.6 L53.6,35.5 C53.6,35.5 51.6,34.4 52,31.3 C52,31.3 53.8,31.9 53.8,35.4 C53.8,35.4 53.9,36.1 54.2,36.4 L54.2,36.6 Z" id="Fill-143" fill="#CB940F"></path>
            <path d="M54.8,35.5 L55.7,34.6 C55.7,34.6 58,34.2 58.6,31.1 C58.6,31.1 56.7,31.1 55.5,34.5 C55.5,34.5 55.1,35.2 54.8,35.3 L54.8,35.5 Z" id="Fill-145" fill="#CB940F"></path>
            <path d="M35.3,51.1 L36.9,51.7 C36.9,51.7 38.7,54.2 42.9,53.1 C42.9,53.1 41.8,50.8 37,51.4 C37,51.4 36,51.3 35.6,51 L35.3,51.1 Z" id="Fill-147" fill="#CB940F"></path>
            <path d="M40,48.5 L41.7,48.9 C41.7,48.9 43.8,51.2 47.8,49.6 C47.8,49.6 46.5,47.5 41.7,48.6 C41.7,48.6 40.7,48.7 40.2,48.4 L40,48.5 Z" id="Fill-149" fill="#CB940F"></path>
            <path d="M43.4,46.4 L45.1,46.8 C45.1,46.8 47.2,49.1 51.2,47.5 C51.2,47.5 49.9,45.4 45.1,46.5 C45.1,46.5 44.1,46.6 43.6,46.3 L43.4,46.4 Z" id="Fill-151" fill="#CB940F"></path>
            <path d="M46.5,44.8 L48.2,44.6 C48.2,44.6 50.9,46.1 54.2,43.3 C54.2,43.3 52.2,41.7 48.1,44.3 C48.1,44.3 47.1,44.7 46.6,44.6 L46.5,44.8 Z" id="Fill-153" fill="#CB940F"></path>
            <path d="M50.3,42 L52,41.8 C52,41.8 54.7,43.3 58,40.5 C58,40.5 56,38.9 51.9,41.5 C51.9,41.5 50.9,41.9 50.4,41.8 L50.3,42 Z" id="Fill-155" fill="#CB940F"></path>
            <path d="M52.9,38.9 L54.4,38.1 C54.4,38.1 57.5,38.5 59.6,34.8 C59.6,34.8 57.2,34 54.2,37.8 C54.2,37.8 53.4,38.5 52.9,38.6 L52.9,38.9 Z" id="Fill-157" fill="#CB940F"></path>
            <path d="M29.5,56.9 C29.2,57.2 29.1,57.3 29.1,57.4 C29.3,57.7 29.2,58.4 29.2,58.4 C29.2,58.4 29.5,57.4 29.7,57.1 C31.1,54.9 33.4,52.8 36.2,51 C39.3,49.1 43.1,47.4 46.6,45 C50.2,42.6 53.2,39.6 54.6,36.1 C56,32.6 56.2,29.1 55.5,26.4 C53.6,21.1 51.1,18.5 51.3,18.4 C51.1,18.5 53.5,21.2 55.2,26.5 C55.9,29.2 55.6,32.6 54.2,36 C52.8,39.4 49.8,42.3 46.3,44.7 C42.8,47.1 39.1,48.8 36,50.8 C33.2,52.4 30.9,54.7 29.5,56.9" id="Fill-159" fill="#CB940F"></path>
            <path d="M52.6,20.3 C52.6,20.2 52.8,20.9 52.6,20.1 C52,17.2 50.5,17 50.5,17 C50.6,19.3 52,20.1 52.3,20.2 L52.6,20.3 Z" id="Fill-161" fill="#CB940F"></path>
            <path d="M12.1,28.8 L12.9,28.1 C12.9,28.1 14.8,28 15.6,25.5 C15.6,25.5 14.1,25.3 12.7,28 C12.7,28 12.3,28.5 12,28.6 L12.1,28.8 Z" id="Fill-163" fill="#CB940F"></path>
            <path d="M12.8,25.1 L13.6,24.4 C13.6,24.4 15.5,24.3 16.3,21.8 C16.3,21.8 14.8,21.6 13.5,24.3 C13.5,24.3 13.1,24.8 12.8,24.9 L12.8,25.1 Z" id="Fill-165" fill="#CB940F"></path>
            <path d="M12.1,28.9 L11.6,28 C11.6,28 10,27.2 10.3,24.8 C10.3,24.8 11.7,25.2 11.7,28 C11.7,28 11.8,28.6 12,28.8 L12.1,28.9 Z" id="Fill-167" fill="#CB940F"></path>
            <path d="M12.6,25.5 L12.5,24.5 C12.5,24.5 11.3,23.2 12.3,21 C12.3,21 13.5,21.8 12.7,24.5 C12.7,24.5 12.6,25.1 12.8,25.3 L12.6,25.5 Z" id="Fill-169" fill="#CB940F"></path>
            <path d="M12.2,32.2 L12.9,31.5 C12.9,31.5 14.6,31.2 15.1,28.9 C15.1,28.9 13.7,28.9 12.7,31.4 C12.7,31.4 12.4,31.9 12.1,32 L12.2,32.2 Z" id="Fill-171" fill="#CB940F"></path>
            <path d="M12.2,32.2 L11.3,31.3 C11.3,31.3 9,30.9 8.4,27.8 C8.4,27.8 10.3,27.8 11.5,31.2 C11.5,31.2 11.9,31.9 12.2,32 L12.2,32.2 Z" id="Fill-173" fill="#CB940F"></path>
            <path d="M32.5,51.2 L32.3,49.5 C32.3,49.5 33.8,46.8 31,43.5 C31,43.5 29.4,45.5 32,49.6 C32,49.6 32.4,50.6 32.3,51.1 L32.5,51.2 Z" id="Fill-175" fill="#CB940F"></path>
            <path d="M27.9,48.5 L27.7,46.8 C27.7,46.8 29.2,44.1 26.4,40.8 C26.4,40.8 24.8,42.8 27.4,46.9 C27.4,46.9 27.8,47.9 27.7,48.4 L27.9,48.5 Z" id="Fill-177" fill="#CB940F"></path>
            <path d="M24.3,46.6 L24.1,44.9 C24.1,44.9 25.6,42.2 22.8,38.9 C22.8,38.9 21.2,40.9 23.8,45 C23.8,45 24.2,46 24.1,46.5 L24.3,46.6 Z" id="Fill-179" fill="#CB940F"></path>
            <path d="M21.6,44.7 L21.4,43 C21.4,43 22.9,40.3 20.1,37 C20.1,37 18.5,39 21.1,43.1 C21.1,43.1 21.5,44.1 21.4,44.6 L21.6,44.7 Z" id="Fill-181" fill="#CB940F"></path>
            <path d="M17.9,41.9 L17.7,40.2 C17.7,40.2 19.2,37.5 16.4,34.2 C16.4,34.2 14.8,36.2 17.4,40.3 C17.4,40.3 17.8,41.3 17.7,41.8 L17.9,41.9 Z" id="Fill-183" fill="#CB940F"></path>
            <path d="M13.6,36.6 L14.2,35.5 C14.2,35.5 16.2,34.4 15.8,31.3 C15.8,31.3 14,31.9 14,35.4 C14,35.4 13.9,36.1 13.6,36.4 L13.6,36.6 Z" id="Fill-185" fill="#CB940F"></path>
            <path d="M13.1,35.5 L12.2,34.6 C12.2,34.6 9.9,34.2 9.3,31.1 C9.3,31.1 11.2,31.1 12.4,34.5 C12.4,34.5 12.8,35.2 13.1,35.3 L13.1,35.5 Z" id="Fill-187" fill="#CB940F"></path>
            <path d="M32.6,51.1 L31,51.7 C31,51.7 29.2,54.2 25,53.1 C25,53.1 26.1,50.8 30.9,51.4 C30.9,51.4 31.9,51.3 32.3,51 L32.6,51.1 Z" id="Fill-189" fill="#CB940F"></path>
            <path d="M27.9,48.5 L26.2,48.9 C26.2,48.9 24.1,51.2 20.1,49.6 C20.1,49.6 21.4,47.5 26.2,48.6 C26.2,48.6 27.2,48.7 27.7,48.4 L27.9,48.5 Z" id="Fill-191" fill="#CB940F"></path>
            <path d="M24.5,46.4 L22.8,46.8 C22.8,46.8 20.7,49.1 16.7,47.5 C16.7,47.5 18,45.4 22.8,46.5 C22.8,46.5 23.8,46.6 24.3,46.3 L24.5,46.4 Z" id="Fill-193" fill="#CB940F"></path>
            <path d="M21.4,44.8 L19.7,44.6 C19.7,44.6 17,46.1 13.7,43.3 C13.7,43.3 15.7,41.7 19.8,44.3 C19.8,44.3 20.8,44.7 21.3,44.6 L21.4,44.8 Z" id="Fill-195" fill="#CB940F"></path>
            <path d="M17.6,42 L15.9,41.8 C15.9,41.8 13.2,43.3 9.9,40.5 C9.9,40.5 11.9,38.9 16,41.5 C16,41.5 17,41.9 17.5,41.8 L17.6,42 Z" id="Fill-197" fill="#CB940F"></path>
            <path d="M15,38.9 L13.4,38.2 C13.4,38.2 10.3,38.6 8.2,34.9 C8.2,34.9 10.6,34.1 13.6,37.9 C13.6,37.9 14.4,38.6 14.9,38.7 L15,38.9 Z" id="Fill-199" fill="#CB940F"></path>
            <path d="M38.4,56.9 C38.7,57.2 38.8,57.3 38.8,57.4 C38.6,57.7 38.7,58.4 38.7,58.4 C38.7,58.4 38.4,57.4 38.2,57.1 C36.8,54.9 34.5,52.8 31.7,51 C28.6,49.1 24.8,47.4 21.3,45 C17.7,42.6 14.7,39.6 13.3,36.1 C11.9,32.6 11.7,29.1 12.4,26.4 C14.3,21.1 16.8,18.5 16.6,18.4 C16.8,18.5 14.4,21.2 12.7,26.5 C12,29.2 12.3,32.6 13.7,36 C15.1,39.4 18.1,42.3 21.6,44.7 C25.1,47.1 28.8,48.8 31.9,50.8 C34.7,52.4 37,54.7 38.4,56.9" id="Fill-201" fill="#CB940F"></path>
            <path d="M15.3,20.3 C15.3,20.2 15.1,20.9 15.3,20.1 C15.9,17.2 17.4,17 17.4,17 C17.3,19.3 15.9,20.1 15.6,20.2 L15.3,20.3 Z" id="Fill-203" fill="#CB940F"></path>
            <path d="M44.4,29.9 L46.8,21.8 L43.3,20.3 L41.7,25.3 C40.9,25.2 40,25.1 39.1,25 L39.6,19.8 L35.9,19.2 L35.3,24.6 C34.7,24.6 34.2,24.5 33.8,24.5 C33.5,24.5 33.1,24.5 32.4,24.6 L31.9,19.2 L28.1,19.7 L28.7,25 C27.8,25.1 26.9,25.2 26,25.3 L24.4,20.3 L20.9,21.8 L23.3,29.9 C23.3,29.9 44.4,29.9 44.4,29.9" id="Fill-205" fill="#CB940F"></path>
            <mask id="mask-2" fill="white">
                <use xlink:href="#path-1"></use>
            </mask>
            <g id="Clip-208"></g>
            <polygon id="Fill-207" fill="#CB940F" mask="url(#mask-2)" points="23.5 32.9 44.2 32.9 44.2 31.2 23.5 31.2"></polygon>
            <path d="M101,46.1 C101,45 100.7,44 100.2,43.3 C99.6,42.6 98.9,42.2 98,42.2 C97.1,42.2 96.4,42.6 95.8,43.3 C95.3,44 95,45 95,46.1 C95,47.2 95.3,48.2 95.8,48.9 C96.3,49.6 97.1,50 98,50 C98.9,50 99.6,49.6 100.2,48.9 C100.7,48.1 101,47.2 101,46.1 M102.2,46.1 C102.2,47.3 101.8,48.3 101,49.1 C100.2,49.9 99.2,50.3 97.9,50.3 C96.6,50.3 95.6,49.9 94.8,49.1 C94,48.3 93.6,47.3 93.6,46.1 C93.6,44.9 94,43.8 94.8,43 C95.6,42.2 96.6,41.8 97.9,41.8 C99.2,41.8 100.2,42.2 101,43 C101.8,43.8 102.2,44.8 102.2,46.1" id="Fill-209" fill="#ffffff" mask="url(#mask-2)"></path>
            <path d="M112.8,42.1 C112.8,42.2 112.8,42.2 112.7,42.3 C112.2,42.4 111.9,42.4 111.7,42.6 C111.5,42.7 111.4,43 111.4,43.3 L111.3,50.2 C111.3,50.3 111.3,50.3 111.2,50.3 C111.2,50.3 111.1,50.3 111,50.2 L105,43.4 L104.9,48.8 L104.9,48.9 C104.9,49.2 105,49.4 105.2,49.5 C105.4,49.6 105.7,49.7 106.2,49.8 C106.3,49.8 106.3,49.9 106.3,50 C106.3,50.1 106.3,50.2 106.2,50.2 L105.4,50.2 L104.6,50.2 L103.8,50.2 L103.1,50.2 C103,50.2 103,50.1 103,50 C103,49.9 103,49.9 103.1,49.8 C103.6,49.7 103.9,49.7 104.1,49.5 C104.3,49.4 104.4,49.1 104.4,48.8 L104.6,43.3 L104.6,43.2 C104.6,42.9 104.5,42.7 104.3,42.5 C104.1,42.4 103.8,42.3 103.3,42.2 C103.2,42.2 103.2,42.1 103.2,42 C103.2,41.9 103.2,41.8 103.3,41.8 L103.9,41.8 L104.4,41.8 L104.9,41.8 L105.4,41.8 L111,48.1 L111,43.1 C111,42.8 110.9,42.5 110.7,42.4 C110.5,42.3 110.2,42.2 109.7,42.1 C109.6,42.1 109.6,42 109.6,41.9 C109.6,41.8 109.6,41.7 109.7,41.7 L110.5,41.7 L111.3,41.7 L112.1,41.7 L112.8,41.7 C112.7,42 112.8,42 112.8,42.1" id="Fill-210" fill="#ffffff" mask="url(#mask-2)"></path>
            <path d="M119.9,47.9 C119.7,48.6 119.6,49.3 119.5,50 C118,50 117,49.9 116.3,49.9 C115.7,49.9 114.6,49.9 113.2,50 C113.1,50 113.1,49.9 113.1,49.8 C113.1,49.7 113.1,49.7 113.2,49.6 C113.7,49.5 114,49.5 114.2,49.3 C114.4,49.2 114.5,48.9 114.5,48.6 L114.5,43.1 C114.5,42.8 114.5,42.6 114.4,42.5 C114.3,42.4 114.2,42.3 114,42.2 C113.8,42.1 113.6,42.1 113.2,42 C113.1,42 113.1,41.9 113.1,41.8 C113.1,41.7 113.1,41.6 113.2,41.6 L114.1,41.6 L115,41.6 L115.9,41.6 L116.8,41.6 C116.9,41.6 116.9,41.7 116.9,41.8 C116.9,41.9 116.9,42 116.8,42 C116.5,42 116.2,42.1 116.1,42.2 C115.9,42.3 115.8,42.4 115.7,42.5 C115.6,42.6 115.6,42.8 115.6,43.1 L115.6,48.8 C115.6,49.3 115.8,49.5 116.3,49.5 L117.5,49.5 C118,49.5 118.4,49.4 118.7,49.1 C119,48.8 119.4,48.4 119.7,47.7 L119.8,47.7 L119.9,47.7 L119.9,47.9 Z" id="Fill-211" fill="#ffffff" mask="url(#mask-2)"></path>
            <path d="M124.5,49.9 C124.5,50 124.5,50.1 124.4,50.1 L123.5,50.1 L122.6,50.1 L121.7,50.1 L120.8,50.1 C120.7,50.1 120.7,50 120.7,49.9 C120.7,49.8 120.7,49.8 120.8,49.7 C121.3,49.6 121.6,49.6 121.8,49.4 C122,49.3 122.1,49 122.1,48.7 L122.1,43.2 C122.1,42.9 122.1,42.7 122,42.6 C121.9,42.5 121.8,42.4 121.6,42.3 C121.4,42.2 121.2,42.2 120.8,42.1 C120.7,42.1 120.7,42 120.7,41.9 C120.7,41.8 120.7,41.7 120.8,41.7 L121.7,41.7 L122.6,41.7 L123.5,41.7 L124.4,41.7 C124.5,41.7 124.5,41.8 124.5,41.9 C124.5,42 124.5,42.1 124.4,42.1 C124.1,42.1 123.8,42.2 123.7,42.3 C123.5,42.4 123.4,42.5 123.3,42.6 C123.2,42.7 123.2,42.9 123.2,43.2 L123.2,48.7 C123.2,49 123.2,49.2 123.3,49.3 C123.4,49.4 123.5,49.5 123.7,49.6 C123.9,49.7 124.1,49.7 124.4,49.8 C124.4,49.8 124.5,49.8 124.5,49.9" id="Fill-212" fill="#ffffff" mask="url(#mask-2)"></path>
            <path d="M135.1,42.1 C135.1,42.2 135.1,42.2 135,42.3 C134.5,42.4 134.2,42.4 134,42.6 C133.8,42.7 133.7,43 133.7,43.3 L133.6,50.2 C133.6,50.3 133.6,50.3 133.5,50.3 C133.5,50.3 133.4,50.3 133.3,50.2 L127.3,43.4 L127.2,48.8 L127.2,48.9 C127.2,49.2 127.3,49.4 127.5,49.5 C127.7,49.6 128,49.7 128.5,49.8 C128.6,49.8 128.6,49.9 128.6,50 C128.6,50.1 128.6,50.2 128.5,50.2 L127.7,50.2 L126.9,50.2 L126.1,50.2 L125.4,50.2 C125.3,50.2 125.3,50.1 125.3,50 C125.3,49.9 125.3,49.9 125.4,49.8 C125.9,49.7 126.2,49.7 126.4,49.5 C126.6,49.4 126.7,49.1 126.7,48.8 L126.9,43.3 L126.9,43.2 C126.9,42.9 126.8,42.7 126.6,42.5 C126.4,42.4 126.1,42.3 125.6,42.2 C125.5,42.2 125.5,42.1 125.5,42 C125.5,41.9 125.5,41.8 125.6,41.8 L126.2,41.8 L126.7,41.8 L127.2,41.8 L127.7,41.8 L133.3,48.1 L133.3,43.1 C133.3,42.8 133.2,42.5 133,42.4 C132.8,42.3 132.5,42.2 132,42.1 C131.9,42.1 131.9,42 131.9,41.9 C131.9,41.8 131.9,41.7 132,41.7 L132.8,41.7 L133.6,41.7 L134.4,41.7 L135.1,41.7 C135.1,42 135.1,42 135.1,42.1" id="Fill-213" fill="#ffffff" mask="url(#mask-2)"></path>
            <path d="M142.6,48.1 C142.3,48.8 142,49.4 141.8,50 C140.3,50 139.3,49.9 138.7,49.9 C138.1,49.9 137,49.9 135.6,50 C135.5,50 135.5,49.9 135.5,49.8 C135.5,49.7 135.5,49.7 135.6,49.6 C135.9,49.6 136.2,49.5 136.3,49.4 C136.5,49.3 136.6,49.2 136.7,49.1 C136.8,49 136.8,48.8 136.8,48.5 L136.8,43 C136.8,42.7 136.8,42.5 136.7,42.4 C136.6,42.3 136.5,42.2 136.3,42.1 C136.1,42 135.9,42 135.5,41.9 C135.4,41.9 135.4,41.8 135.4,41.7 C135.4,41.6 135.4,41.5 135.5,41.5 C136.5,41.5 137.5,41.6 138.5,41.6 C139.5,41.6 140.5,41.6 141.5,41.5 C141.6,42.1 141.7,42.7 141.9,43.3 C141.9,43.4 141.8,43.4 141.7,43.4 C141.6,43.4 141.6,43.4 141.6,43.3 C141.3,42.4 140.7,41.9 139.8,41.9 L138.6,41.9 C138.1,41.9 137.9,42.1 137.9,42.6 L137.9,45.2 L139.4,45.2 C139.8,45.2 140.1,45.1 140.2,44.9 C140.3,44.7 140.4,44.4 140.5,44 C140.5,43.9 140.6,43.9 140.7,43.9 C140.8,43.9 140.9,43.9 140.9,44 L140.9,44.7 L140.9,45.4 L140.9,46.1 L140.9,46.8 C140.9,46.9 140.8,46.9 140.7,46.9 C140.6,46.9 140.5,46.9 140.5,46.8 C140.4,46.3 140.3,46 140.2,45.8 C140.1,45.6 139.8,45.5 139.4,45.5 L137.9,45.5 L137.9,48.4 C137.9,48.9 138.1,49.1 138.6,49.1 L139.9,49.1 C140.4,49.1 140.8,48.9 141.3,48.6 C141.8,48.3 142.1,47.9 142.3,47.5 C142.3,47.5 142.3,47.4 142.4,47.4 L142.5,47.4 L142.6,48.1 Z" id="Fill-214" fill="#ffffff" mask="url(#mask-2)"></path>
        </g>
    </g>
</svg>