<?xml version="1.0" standalone="no"?>
<!DOCTYPE svg PUBLIC "-//W3C//DTD SVG 20010904//EN"
 "http://www.w3.org/TR/2001/REC-SVG-20010904/DTD/svg10.dtd">
<svg version="1.0" xmlns="http://www.w3.org/2000/svg"
 width="694.000000pt" height="694.000000pt" viewBox="0 0 694.000000 694.000000"
 preserveAspectRatio="xMidYMid meet">
<metadata>
Created by potrace 1.14, written by Peter Selinger 2001-2017
</metadata>
<g transform="translate(0.000000,694.000000) scale(0.100000,-0.100000)"
fill="#000000" stroke="none">
<path d="M2958 6662 c-79 -4 -77 -25 2 -42 43 -9 60 -17 61 -29 0 -9 2 -146 5
-306 3 -159 6 -316 8 -348 l3 -57 -36 -11 c-37 -11 -60 -14 -143 -23 -58 -6
-32 -36 -333 380 l-218 302 -31 -10 c-45 -16 -49 -21 -51 -85 -1 -32 -6 -166
-10 -298 -5 -132 -9 -267 -11 -300 -1 -33 -2 -90 -3 -126 l-1 -66 -45 -29
c-39 -24 -60 -54 -38 -54 5 0 65 19 135 42 84 27 128 46 128 55 0 11 -12 14
-47 13 -27 -1 -54 -1 -61 -1 -10 1 -12 32 -10 138 l3 136 103 35 c57 19 104
32 106 31 50 -67 149 -204 152 -213 2 -6 -21 -26 -51 -44 -52 -32 -62 -42 -50
-54 3 -3 91 23 195 58 l189 63 198 5 c109 2 199 4 201 5 1 1 2 7 2 15 0 8 -16
17 -37 21 -72 13 -69 7 -72 189 l-2 166 29 0 c25 0 38 -15 121 -140 109 -161
140 -196 200 -223 54 -24 201 -30 208 -10 3 7 -6 17 -19 22 -13 5 -32 17 -43
27 -21 19 -243 327 -251 349 -3 6 6 16 18 22 80 36 130 115 129 204 0 94 -44
156 -126 180 -38 12 -366 18 -507 11z m382 -53 c71 -27 100 -165 53 -255 -22
-44 -78 -80 -139 -90 -21 -3 -42 -8 -46 -11 -9 -5 -8 -19 -14 194 l-4 172 48
3 c50 3 63 2 102 -13z m-986 -434 l86 -119 -77 -28 c-43 -15 -84 -28 -90 -28
-14 0 -14 6 -14 175 0 124 0 130 5 124 2 -2 42 -58 90 -124z"/>
<path d="M4320 6538 c0 -7 21 -26 45 -43 25 -16 45 -34 45 -40 0 -5 -57 -159
-126 -341 l-127 -331 -46 4 c-25 2 -51 5 -58 8 -6 2 -17 -2 -23 -10 -9 -10 0
-17 42 -33 29 -11 166 -64 303 -117 138 -53 255 -97 260 -98 6 -1 12 -5 15 -8
4 -4 391 -280 486 -347 l31 -21 92 129 c50 71 91 133 91 138 0 6 -7 13 -16 16
-10 4 -40 -18 -89 -64 -88 -83 -113 -95 -159 -76 -54 23 -166 108 -158 121 10
16 393 558 402 568 4 4 30 -1 59 -13 28 -11 56 -20 61 -20 21 0 8 26 -23 48
-17 13 -59 42 -92 66 -33 23 -92 66 -132 94 -82 59 -105 50 -48 -19 19 -22 35
-45 35 -50 0 -11 -407 -589 -415 -589 -3 0 -116 42 -122 45 -1 0 22 64 52 140
44 115 51 141 39 148 -20 12 -27 5 -72 -70 -77 -130 -105 -140 -248 -89 -53
19 -99 37 -102 40 -4 5 17 66 53 151 7 17 25 64 40 105 15 41 29 76 30 78 2 2
33 -10 69 -27 l67 -30 -7 -53 c-18 -132 -1 -120 62 42 67 174 68 180 52 180
-7 0 -28 -25 -46 -55 -18 -30 -36 -55 -40 -55 -4 0 -36 8 -72 19 -43 12 -64
23 -63 32 3 18 101 270 107 277 10 10 172 -63 195 -88 21 -22 23 -31 18 -90
-3 -36 -8 -75 -11 -87 -5 -22 20 -41 34 -26 11 12 94 233 89 237 -7 7 -556
216 -568 216 -6 0 -11 -6 -11 -12z"/>
<path d="M3752 6165 c-12 -25 -22 -47 -22 -48 0 -1 89 -2 197 -2 145 0 197 3
200 12 3 7 -6 15 -19 18 -28 6 -325 65 -330 65 -2 0 -14 -20 -26 -45z"/>
<path d="M1615 6183 c-141 -33 -249 -105 -287 -191 -39 -88 -12 -198 66 -270
70 -64 128 -75 327 -58 114 10 158 -1 189 -45 24 -33 35 -86 26 -123 -8 -33
-52 -83 -89 -102 -62 -33 -124 -6 -267 115 -29 24 -38 27 -52 17 -14 -10 -8
-24 58 -121 47 -70 81 -110 92 -110 37 1 130 29 189 56 76 36 145 109 163 174
25 90 -2 191 -70 263 -39 40 -75 59 -131 69 -50 8 -53 8 -202 -2 -91 -6 -114
-5 -146 10 -93 42 -97 157 -7 210 64 38 101 27 222 -64 34 -25 44 -28 57 -18
15 11 11 21 -43 102 -63 95 -64 95 -95 88z"/>
<path d="M1225 5490 c-49 -23 -61 -33 -106 -90 -48 -60 -83 -137 -109 -240
-14 -56 -37 -110 -67 -160 -63 -102 -165 -299 -203 -390 -46 -109 -70 -160
-74 -160 -9 0 -3 65 16 160 32 166 13 307 -52 365 -18 16 -19 14 -40 -52 -41
-130 -32 -248 27 -355 16 -29 29 -60 28 -68 0 -8 3 -28 7 -44 6 -22 0 -54 -22
-122 -30 -94 -35 -117 -46 -191 -3 -23 -9 -55 -13 -70 l-8 -28 -6 35 c-4 19
-9 64 -12 100 -12 126 -78 263 -147 304 -14 9 -29 16 -33 16 -10 0 -3 -141 10
-192 20 -74 56 -136 111 -191 28 -29 57 -63 64 -76 8 -16 13 -83 15 -195 2
-94 6 -189 9 -211 l6 -40 -30 35 c-16 19 -45 74 -66 122 -83 198 -215 339
-342 364 -25 5 -32 3 -32 -9 0 -29 51 -157 85 -216 56 -95 179 -199 257 -216
14 -4 49 -28 77 -54 53 -50 53 -48 87 -221 5 -26 42 -162 51 -190 3 -8 -6 0
-21 19 -14 19 -26 39 -26 44 0 19 -94 204 -123 242 -74 98 -195 185 -256 185
-25 0 -25 -2 -5 -71 51 -172 181 -324 323 -374 61 -21 123 -84 146 -148 26
-73 95 -222 139 -296 20 -34 36 -64 36 -67 0 -13 -93 63 -117 95 -50 68 -208
217 -280 264 -119 79 -219 112 -332 109 -24 0 -47 -4 -51 -9 -11 -11 67 -126
132 -194 138 -146 295 -224 470 -233 53 -3 80 -11 146 -46 45 -23 82 -46 82
-50 0 -10 134 -185 176 -230 76 -81 124 -135 124 -142 0 -14 -134 27 -170 52
-51 36 -207 108 -285 133 -97 30 -159 41 -246 40 -103 -1 -232 -44 -215 -72
14 -21 175 -121 242 -149 153 -65 328 -77 466 -33 62 20 74 21 159 10 70 -9
97 -17 113 -33 38 -38 172 -152 255 -216 45 -35 79 -65 76 -68 -2 -3 -26 6
-52 20 -200 103 -259 130 -338 153 -152 45 -318 41 -413 -9 -41 -21 -36 -28
57 -90 79 -52 148 -87 216 -111 87 -29 133 -37 230 -37 51 0 107 8 155 22 90
25 90 25 159 16 47 -6 78 -22 212 -109 87 -56 166 -107 176 -113 14 -9 7 -11
-39 -8 -31 1 -73 7 -95 13 -68 18 -155 26 -278 25 -136 -1 -216 -17 -311 -65
-68 -34 -134 -94 -118 -107 13 -12 152 -51 210 -60 81 -11 235 -6 300 11 81
21 162 59 219 102 28 22 68 41 103 49 l57 12 85 -49 c47 -27 103 -59 125 -72
22 -12 58 -32 80 -45 22 -13 65 -36 95 -51 30 -16 52 -29 50 -30 -68 -9 -103
-8 -158 5 -234 52 -458 39 -602 -34 -50 -25 -130 -87 -130 -100 0 -10 62 -34
145 -56 84 -22 264 -27 346 -9 94 20 143 41 229 97 41 28 82 51 90 53 8 2 37
8 64 15 46 10 52 9 110 -21 85 -44 400 -220 471 -263 l58 -35 -34 -9 c-19 -5
-115 -7 -214 -6 -221 4 -325 -13 -452 -76 -72 -36 -183 -126 -183 -149 0 -16
147 -38 253 -39 189 -1 341 53 468 165 49 45 80 63 127 77 l62 19 95 -64 c52
-35 95 -68 95 -74 0 -5 -18 -23 -40 -39 -40 -30 -217 -205 -269 -266 -16 -19
-41 -48 -55 -65 -15 -16 -54 -70 -88 -120 -34 -49 -72 -103 -85 -119 -18 -22
-22 -36 -17 -58 3 -17 6 -46 6 -66 l1 -37 17 50 c29 84 53 127 130 231 78 105
282 317 388 403 l63 51 61 -47 c137 -107 349 -336 446 -481 38 -57 82 -152 82
-178 0 -8 4 -14 9 -14 5 0 7 8 4 19 -2 10 0 36 6 57 9 32 8 41 -8 59 -9 11
-44 58 -76 105 -113 165 -278 349 -423 472 l-54 46 95 66 c52 36 99 66 104 66
35 0 136 -45 165 -73 172 -167 439 -228 708 -162 8 2 18 4 23 4 33 4 -44 88
-127 140 -57 35 -176 76 -261 90 -33 5 -149 9 -257 8 -126 -1 -201 2 -207 8
-10 10 45 47 199 132 19 11 96 54 170 95 214 119 189 111 269 94 50 -11 82
-24 117 -52 172 -131 425 -159 682 -73 l64 21 -34 35 c-82 85 -228 135 -398
137 -120 1 -217 -8 -307 -29 -60 -14 -129 -17 -147 -7 -4 2 14 16 40 31 136
74 215 119 308 173 63 37 72 40 121 33 40 -5 68 -17 110 -46 67 -49 160 -92
235 -109 119 -28 297 -16 443 30 59 18 66 23 58 39 -28 52 -167 122 -286 145
-99 19 -276 15 -395 -10 -47 -9 -105 -18 -130 -19 -53 -2 -65 -12 148 125 140
91 158 100 220 108 50 7 73 6 92 -3 43 -22 141 -38 225 -37 149 2 324 66 462
169 59 44 62 47 43 60 -67 47 -211 63 -343 39 -110 -21 -215 -61 -340 -130
-54 -30 -113 -59 -130 -65 l-32 -11 28 21 c81 61 230 184 287 238 41 38 74 61
90 61 14 1 34 3 45 5 87 16 107 15 177 -7 109 -33 282 -31 393 5 89 30 188 82
270 142 64 47 61 54 -30 86 -149 53 -379 10 -597 -111 -110 -61 -148 -77 -206
-88 l-52 -9 73 76 c70 74 207 241 239 291 8 14 50 43 92 64 61 32 90 40 138
42 91 4 153 21 257 71 82 39 106 57 190 142 89 90 172 204 158 218 -4 3 -35 5
-71 5 -183 -1 -376 -118 -566 -342 -56 -66 -71 -80 -124 -115 l-30 -19 28 44
c44 73 111 210 141 290 21 55 42 89 79 128 28 28 57 52 64 52 27 0 131 63 180
109 67 63 116 143 152 248 29 87 29 88 9 91 -32 5 -139 -52 -188 -100 -60 -58
-133 -173 -171 -266 -18 -42 -43 -90 -56 -107 l-25 -30 11 28 c10 28 57 207
64 243 2 11 7 38 11 61 5 33 18 52 60 92 30 28 59 51 65 51 7 0 35 11 63 25
139 71 230 196 292 404 7 23 6 23 -31 16 -119 -22 -242 -144 -323 -318 -17
-38 -33 -78 -37 -90 -3 -13 -21 -43 -41 -67 l-35 -45 8 85 c4 47 7 141 7 210
-1 145 3 158 82 234 59 58 98 133 111 210 14 93 11 166 -7 166 -5 0 -29 -19
-52 -43 -71 -71 -110 -173 -122 -327 -6 -71 -19 -98 -23 -48 -5 57 -33 181
-59 256 -31 93 -26 150 22 247 19 39 39 95 43 125 10 70 -3 171 -31 234 l-21
49 -21 -27 c-49 -61 -72 -197 -52 -306 15 -78 18 -94 25 -109 4 -9 5 -36 2
-61 l-5 -45 -19 50 c-36 94 -173 370 -240 482 -36 61 -66 118 -66 125 0 39
-64 212 -98 264 -45 68 -71 93 -127 123 l-40 21 -3 -30 c-4 -40 22 -143 54
-207 31 -64 105 -143 161 -172 47 -24 72 -61 169 -256 59 -117 134 -286 134
-301 0 -3 -9 5 -20 19 -11 14 -20 28 -20 32 0 4 -17 35 -37 68 -73 120 -207
227 -285 227 -35 0 -35 -7 3 -83 65 -132 148 -209 265 -244 90 -28 115 -59
158 -192 21 -63 42 -137 47 -165 15 -77 22 -166 14 -166 -11 0 -46 48 -94 130
-60 102 -161 201 -235 229 -99 37 -105 27 -54 -76 57 -117 155 -204 265 -237
29 -8 70 -29 92 -46 l39 -32 -3 -131 c-1 -73 -6 -159 -10 -192 -4 -33 -8 -66
-8 -72 -1 -35 -39 15 -67 87 -53 136 -154 243 -259 275 -23 7 -24 6 -18 -31
10 -62 65 -161 118 -214 43 -43 119 -90 146 -90 14 0 76 -67 70 -77 -3 -4 -8
-26 -11 -48 -18 -111 -120 -433 -146 -459 -12 -12 -32 65 -36 144 -13 209 -78
368 -184 449 l-45 34 -6 -29 c-8 -41 -1 -175 11 -231 20 -86 69 -174 137 -242
35 -35 75 -86 89 -112 l24 -48 -46 -87 c-56 -106 -125 -212 -210 -321 -69 -88
-221 -253 -234 -253 -10 0 14 101 33 137 8 15 37 71 65 123 48 90 94 210 106
275 3 17 8 41 11 55 10 48 6 175 -6 225 -7 28 -21 65 -32 83 l-20 33 -49 -68
c-61 -83 -121 -205 -144 -293 -26 -100 -27 -239 -2 -330 24 -84 25 -106 15
-205 -7 -67 -10 -72 -55 -113 -26 -24 -81 -71 -122 -105 -41 -34 -77 -64 -80
-67 -23 -25 -194 -140 -200 -133 -9 10 14 125 33 161 8 15 37 70 65 122 111
207 150 416 107 566 -9 33 -23 70 -32 83 l-15 23 -50 -68 c-61 -84 -121 -207
-144 -294 -25 -98 -26 -240 -2 -325 23 -83 27 -141 16 -210 -4 -27 -9 -60 -10
-71 -2 -22 -44 -52 -236 -173 -52 -32 -82 -46 -85 -38 -8 25 26 125 71 207 26
47 57 110 70 140 13 30 27 64 32 75 36 83 59 236 49 330 -8 76 -37 166 -55
172 -17 6 -100 -111 -144 -202 -79 -164 -99 -340 -54 -493 16 -56 22 -96 19
-125 -3 -23 -8 -62 -11 -87 -3 -25 -11 -48 -17 -52 -72 -46 -414 -238 -423
-238 -28 0 14 151 66 237 117 195 178 441 145 593 -10 47 -45 130 -56 130 -15
0 -126 -177 -156 -251 -66 -159 -78 -322 -33 -462 20 -64 20 -75 9 -165 -10
-85 -15 -100 -38 -119 -14 -12 -29 -22 -33 -23 -9 0 -367 -207 -442 -255 l-59
-37 7 52 c8 59 30 122 58 162 29 41 104 205 127 275 27 86 44 210 38 281 -6
57 -38 167 -55 184 -13 13 -98 -108 -146 -207 -24 -49 -51 -121 -60 -160 -29
-122 -21 -284 20 -380 7 -18 12 -34 10 -36 -2 -2 -7 -33 -10 -69 -10 -99 -14
-113 -38 -133 -84 -67 -161 -118 -172 -114 -7 3 -51 33 -97 68 -46 34 -85 63
-86 63 -1 1 -4 26 -7 56 -4 30 -8 72 -11 93 -3 24 3 65 17 110 32 102 31 260
0 372 -38 132 -171 356 -199 333 -38 -31 -66 -215 -49 -325 16 -110 78 -267
171 -434 21 -37 60 -177 52 -185 -1 -1 -56 30 -122 70 -66 40 -190 112 -275
160 -85 48 -156 89 -158 90 -1 2 -4 20 -7 42 -3 21 -9 68 -14 104 -6 47 -5 73
5 96 7 17 16 47 19 65 3 19 8 42 11 52 12 37 5 174 -11 247 -9 41 -36 116 -60
165 -45 97 -130 219 -145 210 -5 -3 -18 -31 -30 -63 -61 -159 -18 -398 111
-627 28 -49 57 -108 64 -130 19 -56 29 -135 18 -135 -9 0 -210 111 -360 198
-78 46 -78 47 -89 142 -9 82 -9 80 16 170 21 77 29 210 16 280 -22 112 -85
251 -165 360 -39 54 -45 58 -56 43 -55 -79 -66 -268 -25 -418 15 -54 55 -149
98 -235 69 -135 102 -220 102 -263 0 -22 1 -22 -197 105 l-121 79 -7 52 c-4
29 -9 60 -11 71 -9 48 -6 95 10 141 29 83 39 203 23 285 -15 78 -16 85 -37
145 -25 73 -78 170 -132 241 -40 53 -41 54 -56 33 -41 -59 -60 -197 -42 -314
16 -108 59 -224 141 -385 49 -95 71 -151 75 -188 4 -28 3 -52 -2 -52 -7 0
-170 117 -219 157 -239 196 -227 181 -241 308 -9 74 -9 65 16 150 25 83 30
224 11 305 -29 123 -73 218 -158 338 l-45 64 -17 -29 c-40 -66 -58 -227 -38
-337 19 -101 104 -311 157 -386 20 -29 45 -97 56 -155 l7 -39 -45 44 c-172
173 -352 419 -433 593 -18 38 -18 39 10 98 16 32 32 59 35 59 4 0 27 20 52 44
96 93 146 227 146 390 0 69 -3 96 -12 96 -23 0 -79 -49 -116 -102 -62 -89 -92
-189 -109 -368 -5 -52 -14 -108 -21 -125 l-12 -30 -20 45 c-35 79 -105 302
-124 397 -18 90 -18 92 1 113 10 11 51 36 91 55 110 53 202 170 228 292 l7 31
-36 -8 c-86 -20 -163 -99 -237 -245 -27 -55 -55 -106 -61 -114 -18 -22 -27 33
-34 225 l-6 170 45 37 c25 20 54 37 64 37 65 1 190 91 248 180 37 56 76 137
76 156 0 12 -74 -8 -119 -31 -81 -42 -161 -130 -225 -246 -20 -36 -47 -76 -61
-89 l-26 -24 7 54 c20 179 86 394 135 437 15 14 57 35 92 47 127 43 223 138
277 276 l20 50 -23 0 c-84 0 -211 -96 -286 -215 -23 -35 -41 -68 -41 -73 0 -5
-11 -22 -25 -38 l-25 -29 26 65 c41 102 126 278 188 387 40 73 62 102 79 107
32 8 111 78 147 131 39 57 67 131 80 211 6 37 9 68 8 70 -2 1 -21 -6 -43 -16z"/>
<path d="M3040 5210 c-25 -4 -65 -10 -90 -14 -67 -9 -122 -17 -145 -21 -11 -2
-51 -6 -89 -10 l-68 -8 6 -76 c3 -42 8 -87 10 -101 3 -14 7 -54 11 -90 3 -36
8 -87 11 -115 2 -27 6 -66 8 -85 8 -83 19 -176 22 -192 4 -23 1 -25 -82 -32
-39 -4 -80 -8 -90 -10 -11 -2 -53 -7 -94 -11 l-75 -7 -12 34 c-6 18 -30 94
-53 168 -23 74 -45 146 -50 160 -5 14 -27 84 -50 156 l-40 132 -213 -89 c-237
-99 -243 -102 -239 -121 2 -7 24 -80 49 -163 67 -224 124 -416 193 -652 l63
-213 1363 0 1363 0 21 68 c136 455 288 977 286 979 -1 2 -61 27 -132 57 -71
29 -172 71 -225 94 l-96 40 -68 -217 c-37 -119 -82 -261 -99 -316 l-32 -100
-55 1 c-30 1 -83 4 -119 9 -86 10 -121 14 -142 14 -13 1 -16 8 -14 34 2 17 7
61 10 97 4 36 11 101 16 145 5 44 12 112 15 150 3 39 8 81 10 95 11 69 15 149
8 153 -4 3 -33 8 -64 11 -31 4 -65 8 -75 10 -11 2 -41 7 -69 10 -27 4 -81 11
-120 17 -127 18 -155 20 -156 12 0 -4 -2 -17 -4 -28 -2 -11 -7 -51 -10 -89 -4
-38 -8 -83 -10 -100 -2 -17 -7 -67 -11 -111 -3 -44 -8 -82 -10 -85 -1 -3 -6
-42 -10 -85 -4 -44 -8 -89 -10 -100 -1 -11 -3 -34 -3 -51 l-1 -30 -185 0 -185
-1 -1 26 c-1 14 -3 35 -4 46 -1 11 -5 54 -9 95 -4 41 -9 86 -11 100 -4 23 -7
49 -20 175 -27 263 -23 245 -53 244 -15 -1 -47 -5 -72 -9z"/>
<path d="M2057 3665 c-2 -5 -3 -55 -2 -110 l0 -100 1330 0 1330 0 1 108 c1 59
-2 108 -5 108 -3 1 -601 2 -1328 3 -888 1 -1324 -2 -1326 -9z"/>
<path d="M2402 3363 c-20 -37 -24 -99 -6 -114 13 -11 15 -26 8 -98 -14 -163
-14 -163 131 -166 109 -2 123 -7 126 -45 3 -31 -4 -46 -67 -141 -62 -95 -73
-119 -56 -119 10 0 73 66 127 134 33 41 40 57 41 98 2 46 -17 152 -29 164 -3
4 -54 7 -114 9 -59 1 -112 3 -117 4 -7 1 -4 130 6 235 2 20 -3 32 -19 43 -19
13 -23 13 -31 -4z"/>
<path d="M3032 3085 c-27 -33 -27 -44 -5 -83 17 -29 17 -31 -1 -51 -11 -12
-24 -21 -30 -21 -15 0 -141 130 -149 153 -9 23 -19 21 -41 -9 -24 -34 -24 -70
2 -97 l21 -22 -31 -50 c-23 -37 -30 -59 -28 -90 1 -22 2 -62 3 -88 0 -40 3
-47 16 -41 18 8 33 8 77 -1 26 -6 32 -3 42 20 7 14 12 27 12 29 0 1 -25 27
-55 58 -30 30 -55 62 -55 70 0 8 11 25 25 38 l26 24 122 -122 c122 -122 143
-133 147 -82 4 50 -1 62 -52 116 -47 50 -50 56 -40 79 14 30 39 42 55 26 18
-18 34 -13 45 17 12 35 3 57 -45 111 l-39 44 -22 -28z"/>
<path d="M3640 3069 c-35 -79 -30 -83 107 -84 57 -1 107 -5 112 -10 15 -15 20
-57 22 -171 3 -113 10 -140 28 -105 14 26 21 292 9 338 -10 39 -25 44 -141 46
-54 1 -90 7 -100 16 -15 12 -19 8 -37 -30z"/>
<path d="M4016 3071 c-21 -40 -20 -57 5 -75 19 -13 20 -18 10 -47 -16 -46 -12
-103 12 -194 24 -87 18 -82 100 -71 62 9 121 28 137 45 17 18 29 43 60 123 12
31 37 75 57 97 39 46 39 66 -1 114 -21 26 -26 27 -44 16 -36 -22 -44 -54 -21
-83 18 -23 19 -27 3 -73 -23 -68 -44 -101 -73 -112 -52 -21 -136 -38 -140 -29
-4 12 69 187 81 194 6 4 15 1 21 -5 18 -18 32 -13 50 19 21 35 13 57 -32 89
l-29 21 -16 -25 c-9 -13 -16 -28 -16 -32 0 -12 -82 -227 -90 -236 -9 -10 -33
101 -28 134 2 16 9 24 23 24 25 0 52 52 38 74 -5 9 -28 26 -51 39 l-41 23 -15
-30z"/>
<path d="M3267 2961 c-32 -11 -51 -74 -24 -83 6 -3 69 -4 138 -4 136 1 159 9
159 52 0 12 -5 26 -12 30 -13 8 -239 12 -261 5z"/>
<path d="M2862 2594 c-12 -21 -4 -51 15 -58 21 -8 53 11 53 32 0 39 -50 57
-68 26z"/>
<path d="M2982 2594 c-13 -23 -3 -52 20 -59 22 -8 48 11 48 34 0 38 -51 56
-68 25z"/>
<path d="M4117 2585 c-9 -22 9 -40 38 -40 l30 0 -3 -61 c-3 -61 -3 -61 23 -61
26 0 26 1 24 61 l-3 61 32 1 c38 0 43 4 36 30 -5 18 -13 20 -90 20 -46 -1 -85
-5 -87 -11z"/>
</g>
</svg>
